<?xml version="1.0" encoding="utf-8"?>
<!-- Generator: Adobe Illustrator 26.4.0, SVG Export Plug-In . SVG Version: 6.00 Build 0)  -->
<svg version="1.1" id="Calque_1" xmlns="http://www.w3.org/2000/svg" xmlns:xlink="http://www.w3.org/1999/xlink" x="0px" y="0px"
	 width="25px" height="25px" viewBox="0 0 25 25" fill="#0B1F4E" style="enable-background:new 0 0 25 25;" xml:space="preserve">
<style type="text/css">
	.st0{fill:#1F2649;}
	.st1{clip-path:url(#SVGID_00000101813703801665643400000007496049505900100281_);}
</style>
<g id="Groupe_832" transform="translate(360 100.5)">
	<path id="Tracé_812" class="st0" d="M-360-92.412v1.68l6.731-1.673h0.038h-0.018h0.018h-0.038L-360-94.084V-92.412z"/>
	<path id="Tracé_813" class="st0" d="M-341.731-92.412h-0.038h0.02h-0.02H-341.731l6.731,1.673v-3.359L-341.731-92.412z"/>
	<g id="Groupe_831" transform="translate(0 0)">
		<g>
			<defs>
				<rect id="SVGID_1_" x="-360" y="-100.318" width="25" height="24.636"/>
			</defs>
			<clipPath id="SVGID_00000183960007015369613300000001643971456272903325_">
				<use xlink:href="#SVGID_1_"  style="overflow:visible;"/>
			</clipPath>
			<g id="Groupe_830" style="clip-path:url(#SVGID_00000183960007015369613300000001643971456272903325_);">
				<path id="Tracé_814" class="st0" d="M-341.581-77.45l-1.653-11.982h0.289c0.465,0,0.465-1.68,0-1.68h-0.465v-2.591h0.464
					c0.011,0,0.018-0.01,0.028-0.012c0.436-0.071,0.426-1.68-0.028-1.68c-0.394-0.077-0.727-0.339-0.896-0.703
					c-0.541-1.154-1.606-1.975-2.86-2.204l-0.798-2.016l-0.798,2.016c-1.253,0.23-2.317,1.051-2.857,2.205
					c-0.169,0.365-0.502,0.626-0.896,0.703c-0.455,0-0.464,1.608-0.028,1.68c0.01,0,0.017,0.012,0.027,0.012h0.464v2.59h-0.464
					c-0.465,0-0.464,1.68,0,1.68h0.288l-1.653,11.982c-0.492,0.001-1.466,1.768-0.978,1.768h13.789
					C-340.118-75.682-341.093-77.449-341.581-77.45 M-349.907-93.703h4.815v2.591h-4.815V-93.703z M-350.287-87.572h5.571
					l0.393,2.774h-6.356L-350.287-87.572z M-346.183-77.362v-1.336c0-0.73-0.592-1.321-1.321-1.321c-0.73,0-1.321,0.592-1.321,1.321
					v1.336h-2.912l0.518-3.66h7.424l0.523,3.66H-346.183z"/>
			</g>
		</g>
	</g>
</g>
</svg>
