<svg id="Layer_1" enable-background="new 0 0 66 66" height="512" viewBox="0 0 66 66" fill="white" width="512" xmlns="http://www.w3.org/2000/svg"><g><path d="m18.73 11.3c0-1.54-1.25-2.79-2.79-2.79h-6.78c-1.54 0-2.79 1.25-2.79 2.79v6.78c0 1.54 1.25 2.79 2.79 2.79h6.78c1.54 0 2.79-1.25 2.79-2.79zm-1.72 6.78c0 .59-.48 1.07-1.07 1.07h-6.78c-.59 0-1.07-.48-1.07-1.07v-6.78c0-.59.48-1.07 1.07-1.07h6.78c.59 0 1.07.48 1.07 1.07z"/><path d="m18.73 28.94c0-1.54-1.25-2.79-2.79-2.79h-6.78c-1.54 0-2.79 1.25-2.79 2.79v6.78c0 1.54 1.25 2.79 2.79 2.79h6.78c1.54 0 2.79-1.25 2.79-2.79zm-1.72 6.78c0 .59-.48 1.07-1.07 1.07h-6.78c-.59 0-1.07-.48-1.07-1.07v-6.78c0-.59.48-1.07 1.07-1.07h6.78c.59 0 1.07.48 1.07 1.07z"/><path d="m15.94 43.78h-6.78c-1.54 0-2.79 1.25-2.79 2.79v6.78c0 1.54 1.25 2.79 2.79 2.79h6.78c1.54 0 2.79-1.25 2.79-2.79v-6.78c0-1.54-1.25-2.79-2.79-2.79zm1.07 9.57c0 .59-.48 1.07-1.07 1.07h-6.78c-.59 0-1.07-.48-1.07-1.07v-6.78c0-.59.48-1.07 1.07-1.07h6.78c.59 0 1.07.48 1.07 1.07z"/><path d="m39.33 9.93h-16.76c-.48 0-.86.39-.86.86s.39.86.86.86h16.75c.48 0 .86-.39.86-.86s-.38-.86-.85-.86z"/><path d="m39.33 13.83h-16.76c-.48 0-.86.39-.86.86 0 .48.39.86.86.86h16.75c.48 0 .86-.39.86-.86.01-.48-.38-.86-.85-.86z"/><path d="m22.57 19.45h9.72c.48 0 .86-.39.86-.86s-.39-.86-.86-.86h-9.72c-.48 0-.86.39-.86.86s.39.86.86.86z"/><path d="m39.33 27.57h-16.76c-.48 0-.86.39-.86.86s.39.86.86.86h16.75c.48 0 .86-.39.86-.86s-.38-.86-.85-.86z"/><path d="m40.19 32.33c0-.48-.39-.86-.86-.86h-16.76c-.48 0-.86.39-.86.86 0 .48.39.86.86.86h16.75c.48 0 .87-.39.87-.86z"/><path d="m22.57 37.09h9.72c.48 0 .86-.39.86-.86 0-.48-.39-.86-.86-.86h-9.72c-.48 0-.86.39-.86.86s.39.86.86.86z"/><path d="m33.67 45.2h-11.1c-.48 0-.86.39-.86.86 0 .48.39.86.86.86h11.1c.48 0 .86-.39.86-.86s-.38-.86-.86-.86z"/><path d="m34.53 49.96c0-.48-.39-.86-.86-.86h-11.1c-.48 0-.86.39-.86.86 0 .48.39.86.86.86h11.1c.48.01.86-.38.86-.86z"/><path d="m22.57 53c-.48 0-.86.39-.86.86s.39.86.86.86h4.29c.48 0 .86-.39.86-.86s-.38-.86-.85-.86z"/><path d="m14.3 12.64-2.46 2.46-.64-.64c-.34-.34-.88-.34-1.22 0s-.34.88 0 1.22l1.25 1.25c.17.17.39.25.61.25s.44-.08.61-.25l3.07-3.07c.34-.34.34-.88 0-1.22s-.88-.34-1.22 0z"/><path d="m14.3 30.12-2.46 2.46-.64-.64c-.34-.34-.88-.34-1.22 0s-.34.88 0 1.22l1.25 1.25c.17.17.39.25.61.25s.44-.08.61-.25l3.07-3.07c.34-.34.34-.88 0-1.22s-.88-.34-1.22 0z"/><path d="m14.3 47.6-2.46 2.46-.64-.64c-.34-.34-.88-.34-1.22 0s-.34.88 0 1.22l1.25 1.25c.17.17.39.25.61.25s.44-.08.61-.25l3.07-3.07c.34-.34.34-.88 0-1.22s-.88-.34-1.22 0z"/><path d="m62.02 39.9h-10.69c-.29 0-.57-.1-.79-.29l-1.82-1.56c-.53-.46-1.21-.71-1.91-.71h-5.36c-1.76 0-3.2 1.44-3.2 3.2v21.11c0 1.76 1.44 3.2 3.2 3.2h20.57c1.76 0 3.2-1.43 3.2-3.2v-18.55c0-1.77-1.43-3.2-3.2-3.2zm-20.57-.84h5.36c.29 0 .57.1.79.29l1.82 1.56c.53.46 1.21.71 1.91.71h10.69c.81 0 1.47.66 1.47 1.47v3.39h-23.51v-5.96c0-.8.66-1.46 1.47-1.46zm20.57 24.06h-20.57c-.81 0-1.47-.66-1.47-1.47v-13.44h23.52v13.43c0 .82-.67 1.48-1.48 1.48z"/><path d="m43.03 42.37h2.04c.48 0 .86-.39.86-.86 0-.48-.39-.86-.86-.86h-2.04c-.48 0-.86.39-.86.86-.01.48.38.86.86.86z"/><path d="m35.62 63.2h-30.52c-1.43 0-2.6-1.16-2.6-2.59v-55.21c0-1.43 1.16-2.59 2.59-2.59l42.07-.01c.82 0 1.49.67 1.49 1.5v30.6c0 .48.39.86.86.86.48 0 .86-.39.86-.86v-30.6c0-1.78-1.44-3.23-3.22-3.23l-42.06.02c-2.38 0-4.31 1.93-4.31 4.31v55.21c0 2.38 1.94 4.31 4.32 4.31h30.52c.48 0 .86-.39.86-.86.01-.48-.38-.86-.86-.86z"/></g></svg>