<?xml version="1.0" encoding="iso-8859-1"?>
<!-- Generator: Adobe Illustrator 19.0.0, SVG Export Plug-In . SVG Version: 6.00 Build 0)  -->
<svg version="1.1" id="Capa_1" xmlns="http://www.w3.org/2000/svg" x="0px" y="0px"
	 viewBox="0 0 512 512" style="enable-background:new 0 0 512 512;" xml:space="preserve">
<g>
	<g>
		<path d="M501.871,62.674c-2.332-0.831-57.934-20.278-125.48-20.278c-43.882,0-82.714,8.203-105.182,14.195v311.075
			c22.407-5.982,61.098-14.154,105.182-14.154c68.002,0,123.199,19.457,125.521,20.278c0.193,0.071,0.395,0.152,0.598,0.233
			l9.49,3.853V77.01C512,70.562,507.944,64.824,501.871,62.674z M440.49,307.247c-2.231,6.205-8.081,10.068-14.316,10.068
			c-1.703,0-3.437-0.284-5.14-0.902c-27.173-9.754-57.285-10.271-84.772-1.43l-4.998,1.602c-8,2.565-16.557-1.835-19.132-9.835
			c-2.565-7.99,1.835-16.557,9.835-19.122l4.988-1.612c33.844-10.869,70.902-10.24,104.361,1.774
			C439.222,290.629,443.328,299.339,440.49,307.247z M440.49,224.117c-2.231,6.205-8.081,10.068-14.316,10.068
			c-1.703,0-3.437-0.284-5.14-0.892c-27.173-9.764-57.285-10.271-84.772-1.44l-4.998,1.602c-8,2.575-16.557-1.835-19.132-9.825
			c-2.565-8,1.835-16.567,9.835-19.132l4.988-1.602c33.844-10.879,70.912-10.251,104.361,1.764
			C439.222,207.499,443.328,216.209,440.49,224.117z M440.49,140.987c-2.231,6.205-8.081,10.078-14.316,10.078
			c-1.703,0-3.437-0.294-5.14-0.902c-27.173-9.764-57.285-10.271-84.772-1.44l-4.998,1.602c-8,2.575-16.557-1.825-19.132-9.825
			c-2.565-8,1.835-16.567,9.825-19.132l4.999-1.602c33.844-10.869,70.912-10.24,104.361,1.764
			C439.222,124.369,443.328,133.079,440.49,140.987z"/>
	</g>
</g>
<g>
	<g>
		<path d="M135.609,42.396c-67.546,0-123.148,19.447-125.48,20.278C4.056,64.824,0,70.562,0,77.01v300.926l9.49-3.853
			c0.203-0.081,0.406-0.152,0.598-0.223c2.322-0.831,57.519-20.288,125.521-20.288c44.084,0.001,82.775,8.172,105.182,14.155V56.59
			C218.323,50.598,179.491,42.396,135.609,42.396z M199.698,307.247c-2.22,6.205-8.071,10.068-14.306,10.068
			c-1.714,0-3.447-0.284-5.141-0.902c-27.183-9.754-57.285-10.271-84.782-1.43l-4.999,1.602c-8,2.565-16.557-1.835-19.122-9.835
			c-2.575-7.99,1.825-16.557,9.825-19.122l4.999-1.612c33.834-10.869,70.902-10.24,104.361,1.774
			C198.431,290.629,202.537,299.339,199.698,307.247z M199.698,224.117c-2.22,6.205-8.071,10.068-14.306,10.068
			c-1.714,0-3.447-0.284-5.141-0.892c-27.183-9.764-57.285-10.271-84.782-1.44l-4.999,1.602c-8,2.575-16.557-1.835-19.122-9.825
			c-2.575-8,1.825-16.566,9.825-19.132l4.999-1.602c33.844-10.879,70.902-10.251,104.361,1.764
			C198.431,207.499,202.537,216.209,199.698,224.117z M199.698,140.987c-2.22,6.205-8.071,10.078-14.306,10.078
			c-1.714,0-3.447-0.294-5.141-0.902c-27.183-9.764-57.285-10.271-84.782-1.44l-4.988,1.602c-8,2.575-16.567-1.825-19.132-9.825
			c-2.575-7.999,1.825-16.567,9.825-19.132l4.999-1.602c33.844-10.869,70.902-10.24,104.361,1.764
			C198.431,124.369,202.537,133.079,199.698,140.987z"/>
	</g>
</g>
<g>
	<g>
		<path d="M201.908,426.736c-0.679-1.745-1.044-3.621-1.044-5.547v-31.137c-18.656-3.346-41.195-6.062-65.255-6.062
			c-49.245,0-91.839,11.275-108.163,16.233v54.163c0,4.532,2.028,8.831,5.516,11.721c3.498,2.89,8.101,4.066,12.552,3.214
			l160.49-30.721c0.03,0.061,0.061,0.112,0.091,0.172C204.271,435,202.851,430.974,201.908,426.736z"/>
	</g>
</g>
<g>
	<g>
		<path d="M261.972,402.139c-3.488,1.489-7.442,1.662-11.092,0.355c-0.193-0.061-7.422-2.596-19.599-5.769v21.708
			c0.02,0.081,0.03,0.172,0.041,0.264c1.937,11.863,12.086,20.481,24.131,20.481c11.903,0,22.184-8.74,24.121-20.4v-21.839
			C270.316,399.391,264.131,401.409,261.972,402.139z"/>
	</g>
</g>
<g>
	<g>
		<path d="M376.391,383.928c-24.607,0-47.562,2.81-66.4,6.246v30.305c0,1.369-0.182,2.707-0.537,4.005
			c-0.892,4.928-2.444,9.622-4.552,13.992c0.101-0.193,0.203-0.385,0.294-0.578c178.143,33.256,168.034,31.695,170.711,31.695
			c3.518,0,6.966-1.227,9.713-3.508c3.478-2.89,5.495-7.178,5.495-11.7V402.31l0.061-0.041
			C485.709,400.404,435.663,383.928,376.391,383.928z"/>
	</g>
</g>
<g>
</g>
<g>
</g>
<g>
</g>
<g>
</g>
<g>
</g>
<g>
</g>
<g>
</g>
<g>
</g>
<g>
</g>
<g>
</g>
<g>
</g>
<g>
</g>
<g>
</g>
<g>
</g>
<g>
</g>
</svg>
