<svg id="Capa_1" enable-background="new 0 0 511.729 511.729" height="512" viewBox="0 0 511.729 511.729" width="512" xmlns="http://www.w3.org/2000/svg"><g><g><path d="m254.618 506.134c-54.531 0-98.895-44.365-98.895-98.896 0-54.532 44.364-98.896 98.895-98.896 3.581 0 7.117.196 10.601.569-17.277-4.155-34.351-6.286-50.97-6.286-46.112 0-95.723 16.314-143.468 47.179-35.7 23.078-57.824 46.037-58.748 47.003-5.549 5.8-5.549 14.94 0 20.74.924.966 23.048 23.925 58.748 47.003 47.746 30.865 97.356 47.179 143.468 47.179 16.332 0 40.369-5.595 40.369-5.595z"/><path d="m409.197 417.146-.383.001c-16.305 0-31.014-6.968-41.305-18.082-4.051 4.374-8.795 8.092-14.043 11.008-.997 35.219-20.493 65.885-49.096 82.606 17.857-7.338 35.729-16.739 53.347-28.128 35.7-23.078 57.824-46.037 58.748-47.003.327-.342.632-.698.921-1.062-2.674.411-5.407.641-8.189.66z"/><path d="m269.758 360.834v-19.29c-4.871-1.122-9.934-1.735-15.14-1.735-37.181 0-67.429 30.249-67.429 67.43s30.248 67.43 67.429 67.43c33.891 0 62.011-25.137 66.724-57.743-28.844-2.408-51.584-26.637-51.584-56.092zm12.05 50.758c-2.162 13.192-13.814 23.195-27.214 23.195-10.512 0-20.48-6.238-24.934-15.792-4.953-10.624-2.674-23.678 5.912-31.768 8.471-7.983 21.354-9.866 31.706-4.489 10.428 5.417 16.436 17.227 14.53 28.854z"/></g><path d="m185.041.085-15.641 59.638c-3.435 9.804-5.19 20.117-5.19 30.505v103.892c0 19.885 16.279 35.912 36.121 34.607 17.65-1.161 31.607-15.846 31.607-33.79 0 18.702 15.161 33.864 33.864 33.864 18.702 0 33.864-15.161 33.864-33.864h.092v165.898c0 14.527 11.776 26.304 26.304 26.304h.149c14.527 0 26.304-11.776 26.304-26.304v-136.398c0-8.103 6.226-15.098 14.321-15.455 8.593-.379 15.679 6.476 15.679 14.985v136.877c0 14.596 11.885 26.401 26.481 26.303 14.458-.097 26.126-11.845 26.126-26.303v-218.075h.044c0 30.823 20.301 56.904 48.261 65.603 10.138 3.154 20.432-4.429 20.432-15.047v-193.325z"/><g><path d="m117.259 109.739h-40.076c4.073-4.698 4.95-11.632 1.666-17.319-4.142-7.174-13.316-9.633-20.49-5.49l-42.989 24.819c-4.641 2.679-7.5 7.631-7.5 12.99s2.859 10.311 7.5 12.99l42.989 24.819c2.362 1.364 4.941 2.012 7.486 2.012 5.184 0 10.227-2.69 13.004-7.502 3.284-5.687 2.406-12.622-1.666-17.319h40.076c8.284 0 15-6.716 15-15s-6.716-15-15-15z"/><path d="m124.759 237.848-42.989-24.819c-7.175-4.145-16.349-1.684-20.49 5.49-3.284 5.687-2.407 12.622 1.666 17.319h-40.075c-8.284 0-15 6.716-15 15s6.716 15 15 15h40.076c-4.073 4.698-4.95 11.633-1.667 17.32 4.166 7.241 13.443 9.595 20.49 5.49l42.988-24.82c4.641-2.68 7.5-7.631 7.5-12.99.001-5.358-2.858-10.311-7.499-12.99z"/></g></g></svg>