<svg height="512" viewBox="0 0 512 512" width="512" xmlns="http://www.w3.org/2000/svg"><g id="Eye_and_ent"><path d="m256 135.9443c-92.3213 0-173.4141 47.85-220 120.0547 46.5859 72.2071 127.6787 120.0567 220 120.0567s173.4141-47.85 220-120.0567c-46.5859-72.2051-127.68-120.0547-220-120.0547zm0 216.1114a96.0557 96.0557 0 1 1 96.0547-96.0567 96.0557 96.0557 0 0 1 -96.0547 96.0567z"/><path d="m250.3594 210.1729a50.9027 50.9027 0 0 1 7.3818-26.1407c-.584-.0136-1.1533-.0879-1.7412-.0879a72.0557 72.0557 0 1 0 72.0557 72.0547c0-.5859-.0752-1.1562-.0879-1.7383a50.9221 50.9221 0 0 1 -26.1416 7.3789 51.5256 51.5256 0 0 1 -51.4668-51.4667z"/></g></svg>