<?xml version="1.0" encoding="utf-8"?>
<!-- Generator: Adobe Illustrator 26.4.0, SVG Export Plug-In . SVG Version: 6.00 Build 0)  -->
<svg version="1.1" id="Calque_1" xmlns="http://www.w3.org/2000/svg" xmlns:xlink="http://www.w3.org/1999/xlink" x="0px" y="0px"
	 width="25px" height="25px" viewBox="0 0 25 25" style="enable-background:new 0 0 25 25;" xml:space="preserve">
<style type="text/css">
	.st0{clip-path:url(#SVGID_00000009582783844685600200000004658705582046159796_);}
	.st1{fill:#1F2649;}
</style>
<g id="Groupe_834" transform="translate(507 101.5)">
	<g>
		<defs>
			<rect id="SVGID_1_" x="-507" y="-101.5" width="25" height="25"/>
		</defs>
		<clipPath id="SVGID_00000119815115623812692390000011322218754276884897_">
			<use xlink:href="#SVGID_1_"  style="overflow:visible;"/>
		</clipPath>
		
			<g id="Groupe_833" transform="translate(0 0)" style="clip-path:url(#SVGID_00000119815115623812692390000011322218754276884897_);">
			<path id="Tracé_815" class="st1" d="M-483.167-90.16c-0.453,0.044-0.902,0.124-1.343,0.239
				c-0.258,0.069-0.521,0.121-0.786,0.155c-0.292,0.004-0.542-0.21-0.582-0.5c-0.08-0.387-0.316-0.455-0.42-0.46
				c-0.212-1.015-0.612-1.981-1.18-2.849c0.142-0.187,0.13-0.449-0.028-0.623c-0.18-0.235-0.151-0.569,0.066-0.77
				c0.21-0.163,0.431-0.312,0.66-0.445c0.394-0.23,0.769-0.492,1.122-0.782c0.453-0.404,0.493-1.1,0.089-1.553
				c-0.028-0.031-0.058-0.061-0.089-0.089c-0.211-0.228-0.506-0.361-0.817-0.369c-0.315,0.009-0.614,0.144-0.83,0.375
				c-0.289,0.351-0.548,0.724-0.777,1.116c-0.133,0.229-0.281,0.449-0.443,0.658c-0.1,0.114-0.244,0.181-0.397,0.184
				c-0.133-0.003-0.262-0.042-0.374-0.114c-0.105-0.076-0.23-0.119-0.359-0.125c-0.097-0.001-0.191,0.033-0.265,0.095
				c-0.869-0.569-1.836-0.97-2.852-1.183c-0.009-0.107-0.073-0.341-0.455-0.42c-0.293-0.04-0.509-0.295-0.499-0.591
				c0.034-0.263,0.085-0.523,0.152-0.78c0.116-0.443,0.196-0.894,0.239-1.35c0.034-0.605-0.428-1.124-1.034-1.158
				c-0.044-0.002-0.087-0.002-0.131,0c-0.607-0.035-1.127,0.428-1.162,1.035c-0.003,0.045-0.002,0.089,0,0.134
				c0.043,0.451,0.123,0.898,0.239,1.336c0.067,0.258,0.118,0.52,0.152,0.784c0.009,0.295-0.205,0.55-0.498,0.591
				c-0.386,0.08-0.455,0.314-0.455,0.42c-1.017,0.211-1.986,0.611-2.856,1.178c-0.073-0.063-0.166-0.097-0.263-0.095
				c-0.129,0.006-0.254,0.049-0.359,0.124c-0.112,0.071-0.242,0.111-0.375,0.114c-0.152-0.002-0.296-0.069-0.395-0.184
				c-0.163-0.21-0.312-0.43-0.447-0.659c-0.23-0.395-0.491-0.77-0.783-1.122c-0.216-0.224-0.511-0.353-0.822-0.36
				c-0.311,0.008-0.606,0.141-0.817,0.369c-0.455,0.404-0.496,1.101-0.092,1.556c0.029,0.032,0.059,0.063,0.092,0.092
				c0.35,0.288,0.722,0.548,1.114,0.776c0.23,0.133,0.451,0.282,0.661,0.445c0.217,0.201,0.246,0.535,0.066,0.77
				c-0.158,0.174-0.169,0.436-0.027,0.623c-0.567,0.866-0.966,1.832-1.176,2.845c-0.106,0.008-0.341,0.072-0.42,0.455
				c-0.045,0.291-0.297,0.504-0.591,0.5c-0.262-0.035-0.522-0.086-0.777-0.155c-0.443-0.115-0.895-0.195-1.351-0.239
				c-0.606-0.034-1.125,0.429-1.159,1.035c-0.002,0.044-0.002,0.088,0,0.131c-0.034,0.607,0.43,1.127,1.037,1.162
				c0.043,0.002,0.087,0.002,0.13,0c0.451-0.044,0.898-0.123,1.336-0.239c0.261-0.069,0.527-0.12,0.795-0.152
				c0.29-0.001,0.537,0.21,0.582,0.497c0.078,0.39,0.315,0.455,0.42,0.461c0.211,1.016,0.611,1.983,1.18,2.85
				c-0.143,0.186-0.132,0.448,0.027,0.62c0.179,0.236,0.15,0.568-0.066,0.77c-0.209,0.162-0.429,0.31-0.658,0.443
				c-0.395,0.231-0.771,0.493-1.124,0.785c-0.213,0.204-0.344,0.48-0.367,0.774c-0.008,0.328,0.126,0.644,0.368,0.866
				c0.211,0.228,0.506,0.362,0.817,0.37c0.315-0.01,0.614-0.144,0.83-0.374c0.289-0.351,0.549-0.724,0.777-1.117
				c0.133-0.229,0.281-0.449,0.443-0.659c0.1-0.114,0.244-0.18,0.395-0.183c0.133,0.003,0.264,0.042,0.376,0.114
				c0.105,0.076,0.23,0.119,0.359,0.124c0.097,0.002,0.191-0.032,0.264-0.095c0.867,0.569,1.833,0.97,2.849,1.18
				c0.008,0.106,0.073,0.341,0.455,0.42c0.294,0.04,0.509,0.296,0.499,0.592c-0.034,0.264-0.085,0.525-0.152,0.783
				c-0.116,0.441-0.196,0.89-0.239,1.344c-0.038,0.605,0.422,1.126,1.027,1.164c0.046,0.003,0.092,0.003,0.138,0
				c0.607,0.035,1.127-0.428,1.162-1.035c0.003-0.044,0.002-0.088,0-0.132c-0.044-0.453-0.124-0.901-0.239-1.341
				c-0.067-0.256-0.118-0.516-0.152-0.778c-0.01-0.296,0.205-0.552,0.499-0.592c0.386-0.08,0.455-0.315,0.455-0.42
				c1.015-0.21,1.982-0.611,2.849-1.18c0.073,0.064,0.168,0.098,0.265,0.095c0.129-0.005,0.253-0.049,0.358-0.124
				c0.113-0.072,0.243-0.111,0.376-0.114c0.151,0.003,0.295,0.069,0.394,0.183c0.163,0.21,0.312,0.431,0.445,0.661
				c0.23,0.395,0.492,0.77,0.783,1.123c0.215,0.227,0.511,0.359,0.823,0.368c0.311-0.008,0.606-0.142,0.817-0.37
				c0.243-0.222,0.378-0.538,0.369-0.867c-0.023-0.297-0.157-0.575-0.374-0.78c-0.35-0.288-0.723-0.548-1.115-0.776
				c-0.229-0.135-0.449-0.283-0.66-0.444c-0.216-0.203-0.245-0.536-0.066-0.773c0.159-0.173,0.171-0.434,0.028-0.62
				c0.568-0.868,0.968-1.834,1.18-2.85c0.107-0.009,0.341-0.074,0.42-0.455c0.044-0.291,0.297-0.504,0.591-0.499
				c0.264,0.034,0.526,0.085,0.784,0.152c0.441,0.116,0.89,0.196,1.344,0.239c0.606,0.037,1.127-0.424,1.164-1.029
				c0.003-0.047,0.003-0.095,0-0.142c0.034-0.607-0.431-1.127-1.038-1.161C-483.081-90.163-483.124-90.163-483.167-90.16
				 M-493.906-94.432l0.052-0.114c1.03,0.119,2.005,0.524,2.816,1.169l-0.042,0.114c-0.05,0.12-0.15,0.213-0.273,0.255
				c-0.237,0.109-0.456,0.253-0.651,0.427c-0.18,0.204-0.329,0.434-0.442,0.682c-0.042,0.111-0.129,0.199-0.24,0.242l-0.1,0.039
				c-0.055,0.02-0.114,0.04-0.17,0.066c-0.259-0.155-0.54-0.27-0.833-0.341c-0.024-0.059-0.114-0.266-0.114-0.266
				c-0.049-0.12-0.044-0.255,0.013-0.372c0.09-0.246,0.143-0.503,0.158-0.765c-0.017-0.272-0.074-0.54-0.168-0.795
				c-0.049-0.108-0.049-0.233,0-0.341 M-495.14-94.545c0,0.007,0.052,0.114,0.052,0.114c0.05,0.124,0.044,0.263-0.016,0.383
				c-0.087,0.242-0.139,0.495-0.155,0.752c0.018,0.272,0.075,0.54,0.17,0.795c0.049,0.108,0.049,0.233,0,0.341
				c0,0-0.093,0.205-0.114,0.266c-0.293,0.071-0.574,0.186-0.833,0.341c-0.059-0.025-0.272-0.105-0.272-0.105
				c-0.12-0.051-0.212-0.15-0.253-0.273c-0.114-0.236-0.263-0.455-0.441-0.648c-0.205-0.18-0.434-0.33-0.682-0.444
				c-0.111-0.04-0.199-0.126-0.242-0.236l-0.043-0.114c0.812-0.646,1.788-1.051,2.818-1.169 M-498.877-92.464l0.114,0.043
				c0.121,0.051,0.214,0.151,0.256,0.276c0.111,0.234,0.256,0.451,0.428,0.644c0.205,0.18,0.434,0.329,0.682,0.442
				c0.111,0.041,0.199,0.128,0.243,0.237l0.035,0.093c0.02,0.058,0.043,0.114,0.068,0.18c-0.155,0.259-0.27,0.54-0.341,0.833
				c-0.058,0.024-0.114,0.049-0.167,0.074l-0.098,0.044c-0.051,0.022-0.105,0.034-0.16,0.035c-0.075-0.005-0.15-0.022-0.219-0.051
				c-0.243-0.088-0.498-0.141-0.757-0.156c-0.272,0.017-0.54,0.074-0.795,0.168c-0.057,0.023-0.117,0.036-0.178,0.039
				c-0.056-0.001-0.11-0.013-0.161-0.035l-0.114-0.052c0.119-1.03,0.524-2.006,1.169-2.818 M-498.523-85.818
				c-0.041,0.111-0.129,0.199-0.24,0.241l-0.114,0.044c-0.645-0.812-1.051-1.788-1.169-2.818l0.114-0.051
				c0.051-0.024,0.106-0.037,0.161-0.037c0.076,0.004,0.151,0.022,0.22,0.052c0.243,0.087,0.497,0.139,0.755,0.155
				c0.272-0.017,0.54-0.074,0.795-0.168c0.058-0.023,0.12-0.036,0.183-0.039c0.055,0.001,0.108,0.013,0.158,0.036l0.091,0.041
				c0.056,0.026,0.114,0.052,0.174,0.077c0.071,0.293,0.186,0.574,0.341,0.833c-0.025,0.059-0.103,0.272-0.103,0.272
				c-0.05,0.117-0.146,0.208-0.266,0.251c-0.239,0.11-0.461,0.255-0.658,0.431c-0.18,0.204-0.329,0.434-0.442,0.682
				 M-495.093-83.565l-0.052,0.114c-1.03-0.118-2.007-0.523-2.818-1.169l0.043-0.114c0.051-0.122,0.152-0.217,0.278-0.258
				c0.234-0.11,0.451-0.253,0.644-0.425c0.18-0.204,0.329-0.434,0.442-0.682c0.042-0.111,0.129-0.198,0.239-0.242l0.095-0.035
				c0.057-0.022,0.114-0.043,0.176-0.069c0.259,0.156,0.54,0.271,0.834,0.341c0.025,0.061,0.053,0.122,0.078,0.178l0.04,0.085
				c0.05,0.124,0.044,0.264-0.016,0.383c-0.087,0.243-0.139,0.497-0.155,0.755c0.018,0.272,0.074,0.54,0.168,0.795
				c0.049,0.108,0.049,0.233,0,0.341 M-495.353-89c-0.001-0.471,0.381-0.854,0.852-0.855c0.471-0.001,0.854,0.381,0.855,0.852
				c0.001,0.471-0.381,0.854-0.852,0.855c0,0-0.001,0-0.001,0C-494.971-88.148-495.353-88.529-495.353-89 M-493.853-83.455
				l-0.052-0.114c-0.049-0.121-0.044-0.257,0.014-0.374c0.09-0.245,0.143-0.501,0.158-0.761c-0.017-0.272-0.074-0.54-0.168-0.795
				c-0.049-0.108-0.049-0.233,0-0.341l0.043-0.094c0.025-0.053,0.05-0.114,0.075-0.17c0.294-0.071,0.575-0.186,0.834-0.341
				c0.058,0.025,0.114,0.045,0.17,0.066l0.098,0.036c0.121,0.051,0.214,0.152,0.257,0.276c0.109,0.236,0.254,0.454,0.427,0.648
				c0.205,0.18,0.434,0.329,0.682,0.443c0.111,0.041,0.199,0.127,0.243,0.236l0.043,0.114c-0.811,0.645-1.787,1.051-2.817,1.169
				 M-490.116-85.539l-0.114-0.044c-0.121-0.052-0.214-0.153-0.256-0.277c-0.109-0.234-0.252-0.452-0.424-0.645
				c-0.204-0.18-0.434-0.33-0.682-0.443c-0.111-0.041-0.199-0.128-0.242-0.239l-0.038-0.095c-0.02-0.056-0.042-0.114-0.068-0.175
				c0.155-0.259,0.27-0.54,0.341-0.833c0.057-0.024,0.114-0.05,0.164-0.074l0.1-0.044c0.05-0.024,0.105-0.037,0.161-0.037
				c0.075,0.005,0.149,0.022,0.218,0.051c0.244,0.089,0.499,0.142,0.758,0.157c0.272-0.017,0.54-0.074,0.795-0.168
				c0.058-0.023,0.12-0.037,0.183-0.04c0.055,0.001,0.11,0.013,0.16,0.036l0.114,0.052c-0.118,1.03-0.523,2.006-1.168,2.818
				 M-489.058-89.598c-0.05,0.022-0.105,0.034-0.16,0.035c-0.075-0.005-0.149-0.022-0.218-0.05
				c-0.243-0.089-0.498-0.142-0.757-0.157c-0.272,0.017-0.54,0.074-0.795,0.168c-0.058,0.023-0.119,0.036-0.182,0.039
				c-0.055-0.001-0.109-0.013-0.159-0.035l-0.098-0.044c-0.052-0.025-0.114-0.05-0.167-0.074c-0.07-0.294-0.185-0.575-0.341-0.833
				c0.025-0.059,0.047-0.114,0.067-0.173l0.036-0.098c0.051-0.122,0.151-0.215,0.276-0.257c0.235-0.111,0.453-0.255,0.648-0.427
				c0.18-0.205,0.329-0.434,0.443-0.682c0.042-0.11,0.127-0.197,0.236-0.241l0.114-0.043c0.645,0.811,1.05,1.787,1.169,2.817
				l-0.114,0.053"/>
		</g>
	</g>
</g>
</svg>
