<?xml version="1.0" encoding="iso-8859-1"?>
<!-- Generator: Adobe Illustrator 19.0.0, SVG Export Plug-In . SVG Version: 6.00 Build 0)  -->
<svg version="1.1" id="Capa_1" xmlns="http://www.w3.org/2000/svg" x="0px" y="0px"
	 viewBox="0 0 458.657 458.657" fill="white" style="enable-background:new 0 0 458.657 458.657;" xml:space="preserve">
<g>
	<g>
		<path d="M94.215,12.15c-19.087,0-34.56,15.474-34.559,34.561S75.129,81.27,94.216,81.27c19.003,0,34.441-15.344,34.559-34.347
			C128.547,27.896,113.24,12.495,94.215,12.15z"/>
	</g>
</g>
<g>
	<g>
		<path d="M95.506,98.763c-0.004,0-0.007,0-0.011,0c-9.543-0.003-17.282,7.731-17.286,17.274
			c-0.003,9.544,7.731,17.282,17.274,17.286c0.004,0,0.007,0,0.011,0c9.543,0.003,17.282-7.731,17.286-17.274
			C112.783,106.505,105.049,98.766,95.506,98.763z"/>
	</g>
</g>
<g>
	<g>
		<path d="M148.401,4.683c-5.424,0.642-9.531,5.206-9.6,10.667c-0.085,5.216,3.615,9.728,8.747,10.667
			c5.998,0.354,11.148-4.221,11.503-10.219c0.009-0.149,0.015-0.298,0.017-0.447C158.849,9.552,154.199,4.902,148.401,4.683z"/>
	</g>
</g>
<g>
	<g>
		<path d="M130.055,75.937c-5.762-0.352-10.72,4.033-11.072,9.796s4.033,10.72,9.796,11.072c5.762,0.352,10.72-4.033,11.072-9.796
			c0.017-0.277,0.023-0.555,0.018-0.832C139.668,80.768,135.45,76.366,130.055,75.937z"/>
	</g>
</g>
<g>
	<g>
		<path d="M398.855,108.363c0.196-1.415,0.196-2.851,0-4.267l-16-42.667h4.267c5.254-0.113,9.487-4.346,9.6-9.6
			c-0.224-5.171-4.425-9.279-9.6-9.387H242.908L198.961,2.977c-3.776-3.888-9.989-3.979-13.877-0.203
			c-0.069,0.067-0.137,0.135-0.203,0.203c-3.262,3.886-3.262,9.554,0,13.44l28.16,24.747h-56.533c-5.243,0-9.493,4.25-9.493,9.493
			s4.25,9.493,9.493,9.493h4.267l-15.573,45.867c-0.176,0.988-0.176,1.999,0,2.987v282.453c-0.18,0.987-0.18,1.999,0,2.987
			l19.627,58.027c1.509,3.646,5.016,6.067,8.96,6.187h195.627c4.005-0.091,7.589-2.508,9.173-6.187l19.84-56.32
			c0.19-1.416,0.19-2.851,0-4.267v-282.88L398.855,108.363z M198.478,393.433c-0.635,4.273-3.99,7.628-8.264,8.264h-3.84
			c-5.361,0-9.707-4.346-9.707-9.707s4.346-9.707,9.707-9.707h3.84C195.575,383.08,199.275,388.072,198.478,393.433z
			 M346.801,236.577l-0.213,0l-80.213,128c-1.879,2.65-4.863,4.299-8.107,4.48h-2.987c-4.006-1.279-6.752-4.969-6.827-9.173v-81.28
			h-42.667c-3.454-0.02-6.631-1.893-8.32-4.907c-1.951-2.98-1.951-6.833,0-9.813l80-128c2.028-3.6,6.298-5.29,10.24-4.053
			c4.175,1.078,7.079,4.862,7.04,9.173v80.853h42.667c3.561,0.039,6.857,1.888,8.747,4.907
			C347.46,229.872,347.685,233.325,346.801,236.577z"/>
	</g>
</g>
<g>
</g>
<g>
</g>
<g>
</g>
<g>
</g>
<g>
</g>
<g>
</g>
<g>
</g>
<g>
</g>
<g>
</g>
<g>
</g>
<g>
</g>
<g>
</g>
<g>
</g>
<g>
</g>
<g>
</g>
</svg>
