<svg xmlns="http://www.w3.org/2000/svg" width="146" height="146" viewBox="0 0 146 146">
  <defs>
    <clipPath id="clip-path">
      <rect id="Rectangle_958" width="111.862" height="120" fill="none"/>
    </clipPath>
  </defs>
  <g id="Groupe_953" transform="translate(-210 -10)">
    <circle id="Ellipse_137" cx="73" cy="73" r="73" transform="translate(210 10)" fill="#fff"/>
    <g id="Groupe_860" transform="translate(227.069 23)">
      <g id="Groupe_859" clip-path="url(#clip-path)">
        <path id="Tracé_831" d="M57.835,136.318a60.2,60.2,0,0,1-47.508-23.38,1.563,1.563,0,0,1,.308-2.222l5.476-3.991a1.549,1.549,0,0,1,2.136.292,50.071,50.071,0,0,0,79.173,0,1.55,1.55,0,0,1,2.136-.292l5.475,3.993a1.563,1.563,0,0,1,.308,2.221,60.2,60.2,0,0,1-47.5,23.375" transform="translate(-1.533 -16.318)" fill="#e1946b"/>
        <path id="Tracé_832" d="M7.617,94.418a.55.55,0,0,1-.489-.3,56.071,56.071,0,0,1-4.64-39.068.549.549,0,0,1,1.067.262A54.977,54.977,0,0,0,8.1,93.616a.55.55,0,0,1-.235.741.539.539,0,0,1-.252.062" transform="translate(-0.135 -8.377)" fill="#0b1f4e"/>
        <path id="Tracé_833" d="M124.062,94.42a.539.539,0,0,1-.252-.062.55.55,0,0,1-.235-.741,54.979,54.979,0,0,0,4.549-38.3.549.549,0,0,1,1.067-.262,56.072,56.072,0,0,1-4.641,39.07.55.55,0,0,1-.489.3" transform="translate(-18.938 -8.377)" fill="#0b1f4e"/>
        <path id="Tracé_834" d="M15.725,115.195l-.094-.117-.04-.07-.068-.141-.057-.1-.063-.109-.044-.114-.007-.1-.056-.127-.014-.095-.024-.144.075-.127.138-.005.119-.013.107-.025.108-.025.149.125.018.138.032.1.03.126.044.114.063.122.063.084.086.135.177.183.071.079.115.062.091.036.1.018.124.019.107-.013.1-.044.182-.165.05-.116.019-.124v-.119l.005-.1-.025-.132-.012-.119-.074-.278L17.3,113.9l-.006-.112-.018-.268v-.106l.014-.142.067-.109.05-.1.074-.1.184-.19.1-.075.109-.064.145-.036.09-.045.138-.018.136.007.124.007.113-.008.129.038.128.064.084.054.121.068.113.1.084.067.177.2.058.078.063.108.056.127.044.1.037.12.018.137,0,.094v.13l-.044.123-.036.116-.031.123-.068.1-.1.088-.086.076-.191-.029-.075-.109-.088-.086-.058-.078-.009-.181.085-.088.019-.124.031-.123-.007-.112-.031-.114-.069-.1-.17-.2-.09-.061-.115-.062-.118-.012-.1.019-.124-.007-.1.076-.177.158-.036.092-.007.136-.007.124,0,.08.022.157.052.2.019.113.03.151.019.113.013.107.019.113,0,.15-.012.1-.036.091-.037.116-.038.129-.06.091-.086.1-.176.146-.086.089-.109.063-.113.031-.114.044-.1.008-.126.03-.123-.031-.129-.038-.117-.025-.1-.012-.1-.061-.091-.048-.114-.062-.1-.08-.095-.091-.108-.08-.158-.177Z" transform="translate(-2.34 -17.255)" fill="#fff"/>
        <path id="Tracé_835" d="M24.026,114.351l-.131.029-.095.079-.107.041-.107.054-.131.041-.1.047-.136.009-.107.03-.131.041-.118,0-.126.047-.112.022-.125.01-.1.017-.137,0-.112.01-.13-.022-.124,0-.124-.015-.106,0-.133-.152.014-.137.12-.115.1,0,.112.015L22,114.4l.124,0,.106,0,.13,0,.137-.009.094-.041.112-.01.15-.035.1-.036.04-.136-.1-.107,0-.15.144-.041.107-.054.095-.079.131-.028.1-.06.211.016.061.063.079.094.091.083.08.108.091.07.06.088-.027.124Z" transform="translate(-3.301 -17.42)" fill="#fff"/>
        <path id="Tracé_836" d="M19.905,119.421l-.073-.116-.055-.122-.037-.129,0-.093-.018-.124-.013-.155.032-.1.026-.132.014-.119.038-.132.044-.126.077-.085.058-.114.057-.114.09-.085.185-.176.083-.1.1-.091.1-.054.108-.079.09-.1.1-.054.128-.062.1-.079.1-.036.128-.062.111-.03.136-.018.1-.054.136-.03.117-.024.124-.019.144.014.106,0,.124-.018.151.042.1.02.139.044.095.027.113.045.129.082.076.047.135.087.157.168.1.1.06.1.036.1.03.086.03.135.01.093v.143l-.02.113-.008.113-.051.108-.052.121-.019.113-.069.115.135-.03.116-.062.1-.072.111-.042.135-.019.1-.06.121-.068.2.029.085.077.1.114.064.047-.019.163-.1.061-.11.054-.11.054-.1.054-.135.043-.078.072-.128.049-.117.048-.077.085-.135.056-.084.065-.135.043-.11.055-.084.078-.109.055-.1.066-.135.056-.122.055-.077.084-.116.049-.09.085-.116.048-.091.072-.1.086-.166.207v.13l.177.2.1.032.1.034.131.013.106.014.137-.006.1-.023h.13l.141-.025.106-.011.116-.049.13-.024.124-.005.123-.03.091-.06.141-.037.116-.036.136-.03.159.1.019.148-.119.142-.1.061-.11.041-.124.03-.117.024-.136.019-.11.03-.123.042-.117.024-.13.036-.123.03-.111.03-.118.011-.13.012h-.119l-.13.025-.13.012-.106-.014-.132-.013-.13-.014-.094,0-.138-.044-.1-.052-.134-.063-.175-.161-.053-.085-.054-.109-.042-.111-.012-.13.008-.1.031-.137.058-.091.063-.12-.155.013-.111.017-.13.012-.132-.037-.124.005-.1-.033-.133-.05-.1-.033-.127-.058-.122-.087-.241-.257Zm1.008-.007.119.039.114.032.107.026.157.025.112.008.118-.024.091-.036.124-.03.148-.019.091-.06.117-.024.1-.085.1-.073.115-.062.078-.072.089-.1.091-.06.191-.195.051-.108.058-.113.045-.1.044-.138.032-.114,0-.111-.05-.141-.048-.117-.073-.09-.151-.174-.108-.052-.119-.038-.121-.051-.118,0h-.249l-.124.005-.112.017-.117.036-.13.025-.108.08-.115.06-.13.037-.091.059-.1.091-.1.073-.083.1-.185.189-.089.1-.032.126-.076.109-.045.113-.02.113.013.142.03.135.011.106.073.1.189.2Z" transform="translate(-3.022 -17.879)" fill="#fff"/>
        <path id="Tracé_837" d="M25.674,124.35l-.04-.108-.053-.119-.026-.108-.008-.15.049-.107.02-.129.047-.119.169-.192.086-.067.1-.1.075-.1.1-.069.108-.039.1-.076.124-.06.1-.057.082-.092.127-.036.1-.069.109-.071.1-.045.1-.076.089-.086.1-.076.109-.071.119-.2.04-.124-.025-.141-.053-.119-.148-.124-.1-.036-.1-.044-.109-.016-.125,0-.242.014-.13.011-.094.05-.109.027-.13.011-.131.054-.119.041-.133.043-.1.063-.112.058-.121.029-.122.073-.1.069-.116.065-.133.042-.113.047-.122.072-.1.077-.123.06-.091.075-.112.058-.117.065-.088.087-.124.061-.111.058-.113.09-.2-.018-.087-.045-.1-.063-.082-.1-.135-.07,0-.168.125-.048.077-.086.1-.069.12-.086.1-.069.117-.066.071-.078.1-.069.124-.06.1-.082.1-.069.091-.075.1-.069.12-.085.087-.056.115-.078.1-.081.091-.075.1-.076.106-.052.087-.1.092-.063.111-.058.114-.09.1-.07.086-.068.117-.065.091-.075.087-.1.124-.06.086-.056.218-.01.083.064.1.087.1.075v.144l-.1.089-.065.071-.1.069-.091.075-.1.076-.063.1-.122.073-.092.062-.05.095.086-.055.135-.03.095-.037.108-.04.141-.025.114-.034.116-.022.1-.025.118-.009.258.01.125,0,.129.033.1-.013.139.051.089.057.107.049.174.133.1.113.073.078.072.122.01.118.008.106,0,.124.011.13-.035.117-.048.108-.048.107-.163.2-.1.076-.076.086-.1.1-.089.087-.092.063-.112.058-.121.072-.092.063-.107.052-.129.068-.073.065-.143.057-.1.063-.091.063-.13.067-.089.087-.071.078-.173.212.023.128.173.165.117.036.113.041.124,0,.086-.011.129-.024.13-.011.123-.016.116-.021.112-.058.135-.019.132-.042.108-.039.114-.035.12-.041.125-.047.124-.06.092-.063.2.106.042.132-.1.169-.133.043-.086.055-.119.053-.134.03-.122.03-.106.051-.139.037-.1.032-.124.06-.122.029-.1.057-.142.013-.115.035-.114.034-.111.014-.135.018-.25.008-.152-.017-.129-.021-.107-.049-.112-.041-.113-.054-.173-.122Z" transform="translate(-3.576 -18.405)" fill="#fff"/>
        <path id="Tracé_838" d="M29.475,126.964l-.077-.091-.081-.085-.077-.091-.1-.095-.059-.1-.043-.112-.025-.122-.04-.1-.034-.126v-.127l-.024-.141.035-.1-.011-.143.048-.106.016-.1.015-.136.057-.12.077-.086.033-.115.137-.226.081-.093.077-.086.069-.091.108-.086.08-.074.086-.1.122-.058.085-.05.091-.076.121-.058.095-.064.124-.046.1-.059.114-.03.126-.033.1-.048.139,0,.1-.028.124.019.117-.019.1.016.135,0,.137.047.112.021.084.033.124.05.123.069.187.131.091.07.111.1.062.082.058.09.084.129.011.112.034.126.01.113-.01.129-.028.108-.025.151-.038.091-.135.207-.106.1-.207-.019-.093-.051-.118-.077-.1-.086-.048-.136.127-.179.014-.118.03-.1-.052-.128-.025-.091-.094-.113-.177-.115-.115-.032-.124-.05h-.095l-.122-.006-.152.007-.112.01-.112.043-.119.038-.09.057-.121.058-.091.077-.112.042-.087.1-.106.067-.073.079-.091.108-.042.1-.149.2-.045.117-.065.084-.011.13-.042.13-.011.1.014.124.041.131.023.109.036.108.067.106.165.15.209.146.11.072.13.042.075.047.141.041.113.02.1.024.135.035.107,0,.274.031.133-.029.1-.015.108-.036.139,0,.123-.046.1-.033.124-.045.138-.036.124-.046.107-.067.121-.058.129-.052.147.064.064.126-.059.171-.111.074-.1.04-.135.048-.114.063-.087.037-.129.052-.116.05-.113.043-.1.059-.124.014-.107.036-.114.03-.126.033-.109.024-.144.011-.124.014-.213.039-.142-.008-.249-.036-.092-.018-.135-.036-.1-.023-.124-.05-.1-.03-.12-.089-.118-.046-.209-.146Z" transform="translate(-4.434 -18.943)" fill="#fff"/>
        <path id="Tracé_839" d="M32.074,128.222l.1-.075.056-.1.107-.1.086-.083.09-.091.078-.067.083-.095.075-.1.117-.065.086-.083.084-.114.078-.068.091-.11.153-.186.1-.067.087-.1.1-.066.06-.108.082-.075.121-.093.064-.1.079-.087.113-.058.083-.1.075-.1.1-.074.075-.1.091-.091.091-.091.174-.024.127.061.088.058.108.06.068.168-.083.1-.112.109-.067.1-.094.08-.1.086-.087.1-.068.123.1-.063.1-.066.136-.065.085-.044.139-.033.124-.062.1-.042.092-.039.154-.006.108-.05.133.014.114.013.113-.008.117.045.211.127.119.076.047.1.05.108.038.131.018.13L36.7,127l.006.134-.052.112-.119.215-.1.107-.067.1-.213.022-.232-.108-.122-.088-.038-.131.067-.084.089-.232.032-.113-.081-.125-.179-.13-.088.012-.1-.008-.127.01-.08.036-.1.035-.115.027-.241.107-.093.059-.1.063-.125.081-.09.071-.121.073-.086.083-.12.054-.11.09-.09.07-.118.086-.086.083-.083.095-.094.079-.125.081-.066.083-.13.09-.062.076-.092.109-.124.062-.086.083-.06.108-.113.078-.214.042-.1-.075-.1-.036-.116-.064-.107-.08-.025-.135Z" transform="translate(-4.905 -19.252)" fill="#fff"/>
        <path id="Tracé_840" d="M37.216,131.287,37.1,131.2l-.076-.065-.1-.089-.065-.089-.076-.1-.1-.116-.041-.117-.046-.109-.034-.113-.014-.133-.022-.118.009-.123.005-.133.021-.127,0-.106.033-.13.041-.127.033-.11.13-.231.069-.1.037-.1.091-.112.038-.1.088-.1.077-.08.088-.1.117-.062.081-.088.089-.064.1-.08.113-.073.117-.062.089-.045.113-.074.137-.022.094-.052.117-.022.134-.035.1-.009.153,0,.118,0,.13.014.11.014.119.037.119.017.345.154.084.05.108.08.061.077.1.108.052.074.054.133.045.089.03.122.011.121-.022.127-.008.122-.053.091-.094.218-.076.12-.049.1-.093.073-.089.064-.1.08-.109.046-.1.058-.133.034-.122.01-.218.071-.119-.017-.138,0-.121.01-.126-.02-.107,0-.122-.01-.142-.048-.095-.025-.154-.044-.095-.006-.1-.049-.142-.029-.111-.053-.129.065-.049.123-.014.111.01.122.023.136.018.106.053.113.065.089.088.1.1.069.107.08.191.091.126.041.1.018.123.029.13.033.083.01.153,0,.114.006.137,0,.1-.01.129-.025.119,0,.113-.053.121-.03.13-.026.129-.046.081-.069.145-.058.085-.057.1-.057.128-.086.1-.06.136-.062.154.044.074.113-.06.185-.1.069-.094.073-.092.073-.077.06-.132.074-.113.053-.109.046-.113.073-.093.053-.124.057-.113.034-.1.05-.1.048-.129.047-.106.018-.246.048-.134.014-.106.018-.11.006-.162-.008-.109-.014-.107,0-.114-.006-.114-.045-.119-.017-.135-.045-.13-.052-.219-.113Zm.577-1.993.114.025.126.041.131.052.122.01.119.017.15.032.11-.006.145-.019.119,0,.1-.041.133-.054.108-.065.093-.073.085-.1.094-.218.021-.106-.025-.11-.065-.108-.092-.073-.218-.114-.139-.036-.11.007-.15-.013-.093.033-.145.038-.13.026-.08.069-.121.049-.124.078-.1.076-.074.092-.08.088-.092.112-.092.073.042.176Z" transform="translate(-5.6 -19.576)" fill="#fff"/>
        <path id="Tracé_841" d="M39.99,132.2l.091-.087.041-.107.092-.114.075-.094.077-.1.068-.077.07-.1.061-.108.108-.08.075-.093.067-.124.069-.077.075-.121.128-.2.087-.08.074-.113.087-.079.045-.115.071-.086.108-.108.05-.1.067-.1.1-.074.069-.1.062-.108.091-.087.062-.108.077-.1.078-.1.17-.047.134.043.095.047.114.045.089.157-.069.1-.095.124-.053.111-.083.091-.086.1-.073.113-.052.131.1-.076.088-.079.127-.082.078-.055.134-.052.115-.077.1-.057.086-.051.152-.025.1-.064.134,0,.114,0,.113-.022.12.028.226.1.128.06.059.089.064.1.055.125.035.127-.024.132.024.132-.036.118-.091.229-.084.118-.053.112-.208.05-.244-.076-.132-.071-.055-.125.055-.092.057-.241.018-.116-.1-.114-.195-.1-.085.024-.107.005-.124.027-.075.046-.095.048-.11.041-.224.139-.085.07-.1.075-.113.1-.08.082-.11.089-.075.093-.113.07-.1.1-.079.081-.106.1-.075.094-.069.1-.083.091-.113.1-.055.092-.117.1-.051.084-.076.121-.116.078-.074.093-.045.115-.1.091-.207.069-.108-.061-.1-.022-.122-.048-.117-.064-.043-.13Z" transform="translate(-6.12 -19.81)" fill="#fff"/>
        <path id="Tracé_842" d="M52.815,133.151l-.022.149-.107.063-.093.075-.063.065-.135.064-.091.067-.124.058-.084.041-.135.029-.113.052-.1.028-.111.008-.251-.012-.229-.061-.095-.053-.163.067-.042.124-.04.117-.057.113-.038.108-.087.122-.078.089-.046.106-.1.1-.061.093-.116.1-.052.1-.093.075-.114.088-.088.058-.131.084-.108.062-.077.053-.13.047-.13.039-.1.046-.124.021-.146.007-.109.036-.128,0-.093-.025-.141-.019-.268-.053-.1-.044-.1-.063-.1-.064-.1-.091-.11-.1-.069-.082-.071-.109-.033-.119-.019-.132-.026-.107-.02-.133-.061.093-.068.119-.089.095-.052.1-.069.126-.037.108-.09.095-.048.114-.082.106-.061.093-.051.123-.069.091-.031.119-.074.108-.086.086-.051.124-.061.092-.076.117-.057.112-.058.113-.063.1-.052.1-.048.114-.075.108-.078.089-.193.077-.086-.023-.123-.014-.136-.036-.123-.051-.028-.135.061-.093.029-.11.07-.127.146-.207.061-.092.085-.114.061-.093.051-.123.064-.1.074-.108.044-.1.065-.11.085-.114.072-.1.029-.11.064-.1.091-.1.026-.1.087-.123.048-.114.084-.078.041-.117.074-.108.091-.1.066-.11.026-.1.083-.1.065-.11.052-.1.1-.12.048-.114.044-.1.065-.11.075-.107.08-.1.052-.1.048-.113.069-.119.063-.1.08-.1.057-.112.051-.124.058-.085.076-.116.08-.1.04-.116.078-.089.053-.132.095-.083.064-.1.186-.087.1.027.117.04.106.01.1.172-.06.12-.076.117-.041.124-.042.125.069-.091.13-.047.082-.07.119-.069.1-.056.13-.047.1-.018.094-.047.15-.015.111-.007.092,0,.142.01.229.061.127.069.114.048.069.082.089.078.084.095.058.124.035.11.073.1.035.146.007.111,0,.128.022.124.061.217.095.089.113.057.217.039.132.017.1-.009.132-.019.139-.045.113-.052.106-.054.095-.048.1-.073.216.011Zm-3.977,1.731.147-.007.125-.031.08-.06.253-.133.1-.057.1-.09.064-.1.092-.075.085-.113.07-.091.058-.12.063-.1.052-.131.051-.124.066-.11.043-.234,0-.145.012-.115.006-.126,0-.108-.061-.116-.066-.127-.078-.084-.067-.091-.117-.04-.227-.069-.1-.008-.156.005-.109.035-.092.039-.135.064-.114.052-.11.071-.095.084-.056.076-.114.088-.07.091-.108.1-.054.1-.044.1-.089.095-.04.117-.068.119-.03.111-.065.246-.008.134.007.111,0,.118.037.137.037.1.058.124.114.085.1.091.108.037.216.076Z" transform="translate(-6.926 -20.147)" fill="#fff"/>
        <path id="Tracé_843" d="M58.373,133.464l.018.155-.072.1-.1.116-.085.074-.16.195-.079.093-.089.1-.093.073-.119.069-.079.092-.25.1-.117.059-.12.023-.095.028-.121.032-.124,0-.189-.042-.089.1-.066.122-.013.123-.062.1-.032.128-.052.1-.082.11-.055.107-.077.084-.067.123-.079.092-.053.1-.092.073-.107.1-.083.066-.1.071-.084.065-.113.087-.114.042-.091.064-.116.052-.113.033-.114.042-.11.016-.145.01-.117.006-.116,0-.124,0-.24-.052-.13-.023-.116-.047-.1-.062-.106-.055-.1-.08-.08-.058-.089-.1-.064-.091-.071-.1-.058-.126-.036-.1-.057-.135-.026-.1-.031-.122.014-.131-.025-.111.033-.137,0-.125.033-.235.041-.135.017-.095.051-.134.073-.113.022-.121.072-.1.034-.092.1-.116.029-.111.069-.086.1-.1.09-.1.093-.072.06-.088.1-.1.213-.141.1-.046.211-.132.13-.03.114-.042.129-.022.1-.026.1-.026.146-.019h.107l.123.014.235.032.151.054.091.042.1.044.1.064.128.085.065.082.092.088.067.119.074.093.041.123.058.118.025.112.011.136.032.121.107.207.26.046.137-.02h.1l.107-.053.1-.046.109-.061.1-.08.117-.051.08-.1.075-.076.1-.09.075-.075.065-.113.07-.095.174-.031Zm-4.034,2.577.127-.014.108-.052.139-.03.13-.075.068-.077.1-.072.113-.086.058-.08.113-.086.072-.1.038-.118.067-.123.053-.1.064-.113.043-.144.029-.111.033-.235.031-.128,0-.115-.048-.134-.009-.1-.032-.122-.063-.091-.054-.1-.074-.084-.13-.077-.082-.041-.259-.046h-.107l-.148.027-.1.046-.113.033-.1.054-.13.075-.092.072-.1.08-.07.094-.1.1-.086.083-.033.137-.089.1-.036.1-.066.122-.023.13-.041.127-.057.222,0,.125,0,.135.013.128.025.111.062.1.034.113.08.1.093.079.067.074.135.051.245.025Z" transform="translate(-8.083 -20.346)" fill="#fff"/>
        <path id="Tracé_844" d="M58.46,137.381l-.138-.039-.116-.073-.057-.058-.116-.081-.079-.1-.034-.109-.069-.121-.024-.117-.016-.116-.014-.125.047-.216-.009-.1.053-.092.027-.1.028-.112.037-.12.036-.1.012-.123.052-.1.04-.137.036-.1.072-.108.045-.11.04-.138.018-.1.065-.126.036-.1.065-.127.064-.117.063-.109.02-.122.064-.126.063-.118.037-.111.063-.118.194-.087.255.006.14.021.114.011.075.13-.073.126-.019.113-.089.1-.054.11-.03.121-.054.109-.046.119-.037.12-.056.119-.063.108-.046.111-.055.118-.047.119-.028.113-.081.115-.039.129-.036.112-.03.13-.064.118,0,.123-.063.119-.012.122-.03.227.018.1.041.119.108.072.1.053.218.029.108-.025.1-.035.093-.044.075-.047.095-.07.1-.087.1-.079.069-.081.088-.1.1-.1.045-.1.074-.125.087-.08.064-.119.08-.1.082-.124.053-.1.063-.109.064-.126.09-.107.063-.109.054-.109.038-.12.091-.124.037-.112.063-.118.109-.228.08-.1.047-.119.046-.12.187-.114.13.03h.1l.115,0,.1.01.066.138-.037.12-.046.111-.045.1-.09.115-.037.112-.065.135-.037.111-.063.109-.055.119-.054.11-.02.122-.063.1-.037.119-.064.109-.037.12-.046.111-.047.136-.081.108-.01.113-.048.137-.063.1-.011.123-.03.138.006.221.031.135.073.077.235.04.108-.017.1-.052.129-.059.086-.071.1-.088.1-.08.1-.069.052-.092.08-.107.106-.1.069-.082.1-.1.044-.094.088-.1.1-.106.035-.085.072-.108.2-.025.1.089.044.19-.1.1-.081.116-.062.091-.089.1-.063.108-.053.1-.107.1-.052.092-.116.1-.054.1-.095.08-.1.08-.089.1-.1.088-.174.169-.113.078-.092.045-.123.076-.127.041-.082.027-.163.038-.1.017-.243-.048-.113-.019-.125-.082-.091-.07-.052-.093-.077-.122-.044-.1,0-.123,0-.124.026-.28.03-.13.014-.149-.046.111-.089.1-.072.108-.061.091-.088.089-.079.09-.107.1-.113.069-.087.08-.093.062-.1.053-.121.068-.119.042-.127.041-.107.008-.125.014-.245-.023Z" transform="translate(-8.862 -20.455)" fill="#fff"/>
        <path id="Tracé_845" d="M63.206,137.412l.055-.113,0-.114.047-.139.036-.114.038-.122.036-.1.029-.122.019-.123.072-.113.037-.113.02-.141.036-.1.029-.14.048-.237.054-.1.029-.131.055-.1,0-.124.036-.1.064-.139.011-.114.028-.114.072-.1.029-.122.019-.123.054-.113.02-.123.037-.122.037-.123.142-.1.141-.006.1.011.123,0,.138.117-.028.123-.047.148-.011.123-.046.113-.046.122-.029.132,0,.141.063-.1.054-.1.09-.122.054-.078.108-.095.08-.113.072-.086.063-.079.134-.076.071-.1.124-.051.106-.042.1-.059.123-.016.246.014.141.011.086.064.095.072.095.1.078.107.024.132.069.115.007.123,0,.246-.038.14-.01.123-.178.12-.255.014-.15-.02-.095-.1.019-.1-.03-.247-.025-.114-.13-.073-.219-.03-.071.051-.1.042-.107.069-.054.069-.072.078-.089.078-.162.207-.054.1-.063.1-.072.13-.046.1-.073.122-.037.113-.08.1-.055.13-.046.1-.064.13-.036.113-.029.123-.046.113-.073.13-.019.105-.072.14-.019.1-.029.14-.081.113-.037.114,0,.123-.064.122-.169.137-.123-.019-.106.016-.131,0-.132-.02-.086-.107Z" transform="translate(-9.686 -20.495)" fill="#fff"/>
        <path id="Tracé_846" d="M71.163,137.618l-.15,0-.08-.012-.152-.031-.116-.017-.124-.016-.118-.035-.084-.055-.135-.033-.083-.046-.13-.069-.055-.136.079-.113.063-.1.045-.1.044-.1.19-.041.121.069.1.036.119.052.118.035.135.024h.1l.16.014.253-.03.105-.008.119-.054.084-.051.074-.068.091-.086.054-.092.026-.108L72,136.2l-.061-.109L71.851,136l-.094-.072-.075-.064-.12-.06-.1-.063-.265-.11-.1-.054L71,135.515l-.224-.149-.085-.063-.1-.1-.045-.119-.053-.1-.036-.12-.039-.262v-.123l.017-.125.058-.137.019-.1.069-.12.089-.1.08-.095.063-.093.108-.08.127-.063.094-.035.128-.055.148-.029.1-.026.262-.021h.1l.125.016.135.033.108.026.118.044.12.069.075.055.1.08.07.108.07.1.078.1.036.112.011.131.009.113-.139.135-.133-.007-.122.018h-.1l-.15-.1-.019-.123-.086-.089-.08-.1-.093-.063-.108-.044-.124-.008-.264.013-.1.034-.119.054-.08.086-.046.091-.08.095v.124l.019.236.051.084.1.089.095.08.065.047.139.077.192.081.1.054.138.068.1.053.092.054.1.053.121.087.077.074.051.083.07.1.079.108.036.1.028.13.009.229.019.122-.016.124-.044.109-.035.118-.055.084-.052.119-.1.079-.108.08-.091.078-.074.076-.111.044-.093.043-.119.053-.121.028-.13.019-.13.037-.237.019Z" transform="translate(-10.723 -20.454)" fill="#fff"/>
        <path id="Tracé_847" d="M75.452,130.727l-.057.122.005.124-.031.109-.022.118-.047.129-.023.109-.075.114-.041.1-.047.13-.069.1-.038.128-.051.1-.068.105-.051.094-.085.107-.06.1-.1.091-.077.1-.088.09-.06.086-.2.014-.1-.095-.019-.166.063-.078.079-.08.069-.1.077-.1.06-.087.077-.106.075-.114.024-.1.06-.095.063-.141.033-.1-.084-.114-.149.017-.117-.092.055-.14.022-.118-.005-.123.057-.122.014-.116.141-.157.087-.01.124-.006.121-.022.133,0,.112-.03.107.005.081.1Z" transform="translate(-11.354 -20.009)" fill="#fff"/>
        <path id="Tracé_848" d="M77.341,136.5l-.119-.015-.1,0-.13-.031-.136-.013-.134-.058-.114-.043-.081-.058-.108-.063-.1-.091-.086-.092-.07-.095-.088-.1-.059-.087-.075-.13-.044-.1-.056-.124-.055-.115-.03-.129-.041-.242.008-.117-.03-.12.024-.129,0-.116.013-.135.008-.108.025-.12.03-.138.035-.113.019-.1.041-.123.068-.127.053-.116.021-.084.08-.112.054-.1.1-.124.081-.094.07-.065.1-.08.085-.076.11-.091.1-.043.087-.069.128-.031.114-.063.106-.009.274-.064.108.009.116,0,.1.026.109.018.116.052.135.058.092.074.082.066.064.114.049.08.072.113.031.129.038.225,0,.124-.007.118-.026.111-.024.12-.038.095-.076.129-.037.1-.075.084-.08.112-.076.075-.083.085-.129.085-.08.058-.111.081-.1.06-.107.054-.224.1-.141.06-.117.046-.087.014-.117.047-.142.051-.089.007-.082.146.02.122.08.1.079.1.067.078.074.068.117.06.132.041.113.034.124,0,.119.016.2-.053.12-.029.1-.035.144-.041.074-.04.108-.045.138-.076.069-.066.1-.088.106-.062.1-.1.075-.084.084-.085.1-.106.042-.113.091-.1.037-.095.058-.135.09-.1.053-.107.058-.126.008-.108.059-.126.157-.07.153.064.047.179-.026.1-.036.1-.059.126-.035.113-.058.125-.063.1-.027.1-.071.11-.06.117-.062.108-.047.1-.072.1-.069.119-.085.076-.071.11-.074.093-.093.078-.1.08-.065.091-.095.069-.114.063-.13.075-.08.05-.11.036-.114.064-.108.046-.111.027-.157.018-.226.038Zm-.637-1.987.246-.076.094-.025.13-.075.125-.047.107-.054.112-.08.1-.089.1-.07.073-.093.061-.117.046-.1.039-.14.036-.1-.044-.26-.078-.094-.107-.053-.116-.053-.094-.028-.251.042-.135.049-.1.063-.075.084-.092.086-.091.1-.062.108-.071.11-.079.112-.042.123-.034.113,0,.133-.06.117.013.131-.007.118.142.1Zm.005-2.986.043-.114.078-.12.045-.106.082-.094.044-.1.121-.235.074-.092.045-.106.062-.108.188-.156.149-.016.136-.032.116,0,.13-.022.058.079-.1.114-.041.079-.1.123-.044.106-.082.094-.074.092-.059.126-.075.084-.047.1-.1.114-.062.108-.062.109-.176.119-.149.016-.095.016-.12.029-.079-.094Z" transform="translate(-11.607 -19.967)" fill="#fff"/>
        <path id="Tracé_849" d="M82.182,135.878l-.119-.007-.117,0-.119-.008-.135.006-.115-.025-.11-.046-.107-.064-.1-.039-.115-.062-.093-.085-.119-.08-.05-.1-.113-.089-.045-.107-.065-.084-.089-.1-.049-.124-.01-.115-.061-.1-.072-.254-.012-.124-.01-.115-.019-.113.011-.138v-.108l-.014-.133.041-.128.022-.095.007-.12.041-.127.018-.113.052-.122.026-.115.056-.1.062-.114.037-.108.091-.1.05-.094.1-.079.066-.1.084-.065.094-.1.128-.069.092-.067.081-.038.122-.058.134-.042.224-.045.113-.019.151-.01.1.012.1.019.152.027.089.069.115.062.089.069.087.1.059.094.093.122.041.09.058.239v.145l-.156.138-.1.034-.136.033-.132.015-.132-.058-.044-.216-.076-.09-.049-.087-.13-.05-.083-.042-.146-.009-.2.05-.1.062-.122.057-.064.07-.087.085-.1.115-.069.089-.045.11-.054.113-.019.105-.041.128-.007.119-.046.111.014.132-.024.124.008.107.016.141.042.1.042.243.055.113.016.1.087.1.065.119.064.075.1.075.124.059.1.058.1.047.124.024.221-.018.25-.052.128-.031.12-.065.085-.021.126-.077.092-.068.086-.057.118-.074.07-.08.209-.178.071-.117.06-.087.047-.1.092-.1.052-.121.041-.091.052-.121.069-.125.052-.122.025-.123.041-.128.049-.13.147-.063.136.038.085.161-.022.132-.038.1-.058.132-.032.125-.032.09-.05.13-.043.119-.046.11-.025.115-.075.1-.047.1-.056.1-.062.115-.058.1-.091.113-.075.1-.118.183-.1.1-.2.157-.076.054-.118.075-.086.058-.122.057-.087.048-.147.027-.113.055-.249.052Z" transform="translate(-12.318 -20.183)" fill="#fff"/>
        <path id="Tracé_850" d="M85.031,134.761l.015-.125-.035-.108,0-.147,0-.119,0-.129,0-.1L85,133.9l-.021-.122.032-.13v-.119l-.026-.14,0-.1-.019-.142-.03-.239.018-.117-.015-.133.018-.118-.037-.117v-.111l.016-.152-.027-.112-.009-.117.034-.122-.012-.125-.021-.122.015-.125-.021-.122,0-.129,0-.128.1-.143.131-.052.1-.024.117-.037.169.065.012.125,0,.156.03.119-.008.123,0,.13.016.133.042.135.026-.119.019-.117.046-.144.026-.091.07-.124.041-.133.04-.1.034-.094.1-.116.038-.113.1-.088.086-.074.073-.088.113-.055.236-.066.137-.036.1.032L87,130.3l.121.063.108.076.065.117.1.087.047.115.075.234.009.145.029.119-.129.171-.238.095-.147.029-.122-.062-.015-.106-.109-.224-.06-.1-.146-.027-.218.042-.051.072-.078.072-.08.1-.028.082-.043.1-.059.1-.086.249-.02.108-.026.119-.026.146-.01.114-.029.138v.119l-.042.125-.01.141-.009.114-.019.144,0,.119.013.125-.007.123-.027.146.016.106-.024.156.013.1.018.142-.04.133v.119l.038.118-.021.135-.116.185-.122.02-.095.049-.126.041-.13.023-.116-.073Z" transform="translate(-13.015 -19.968)" fill="#fff"/>
        <path id="Tracé_851" d="M88.468,128.48l-.019-.124,0-.1.01-.247-.022-.133.007-.106.107-.191.1-.029.125-.067.147-.056.088-.042.138.041.014.136-.014.136.007.119.027.122-.017.128,0,.142.019.124-.119.157-.085.052-.123.047-.253.076L88.5,128.6Zm1.334,4.768-.119.008H89.56l-.115-.031-.131-.025-.076-.075-.117-.086-.065-.1-.074-.094-.092-.1-.075-.2v-.123l-.062-.09-.027-.121.007-.106-.008-.119-.024-.113-.019-.124-.011-.127-.041-.107.029-.124-.017-.145-.035-.118-.014-.108.011-.146.006-.134-.015-.116-.029-.149.02-.12-.016-.145-.036-.118,0-.111.022-.141-.025-.141.02-.12.081-.181.272-.1.1-.048.107-.041.148.094.01.1.01.128-.02.12.032.11-.014.136.021.133-.019.12.008.12.029.1.014.136-.02.12.025.113.01.128-.012.117.019.124.014.136,0,.113.008.119.032.11.024.113.019.124.03.13.036.119.084.222.093.1.108.064.1.018.228-.068.067-.072.119-.083.057-.1.076-.123.094-.224.063-.108.031-.115.029-.124.017-.129.04-.119.017-.129.045-.13.019-.1.03-.143.008-.126.029-.123.146-.084.152.027.087.155-.034.135-.026.1,0,.114-.017.129-.031.115-.029.124-.034.107.007.119-.067.119,0,.114-.045.13-.048.122-.019.1-.031.115-.07.111-.027.1-.075.123-.049.094-.052.113-.091.081-.054.106-.106.068-.086.07-.1.076-.233.079Z" transform="translate(-13.56 -19.532)" fill="#fff"/>
        <path id="Tracé_852" d="M91.633,132.433l0-.126-.047-.1-.017-.146-.014-.119-.018-.127-.007-.1-.026-.124-.034-.119.019-.133-.014-.119-.041-.135-.007-.1-.033-.139-.055-.235.005-.117-.029-.132.005-.118-.05-.113-.01-.111v-.153l-.038-.108-.022-.115.022-.125-.026-.123-.033-.119,0-.126-.034-.12-.018-.126-.017-.127.085-.153.125-.065.1-.035.113-.05.174.048.026.123.02.155.041.116.006.122.009.13.03.131.057.129.014-.121.006-.118.03-.149.016-.093.058-.13.026-.137.028-.109.025-.1.088-.126.025-.117.091-.1.078-.082.064-.1.105-.066.229-.091.132-.048.1.02.117.025.128.049.115.064.077.11.111.076.058.108.1.225.025.143.042.116-.111.184-.226.119-.144.044-.127-.049-.027-.1-.131-.211-.07-.094-.149-.011-.212.064-.043.077-.071.08-.068.107-.019.085-.033.1-.048.108-.058.256-.01.11-.014.122-.01.149,0,.114-.014.141.014.119-.03.129,0,.142,0,.114,0,.145.014.119.025.124.006.122-.011.15.027.1-.008.157.023.1.033.139-.026.137.014.118.05.113-.007.137-.1.2-.119.033-.09.059-.12.053-.128.037-.124-.061Z" transform="translate(-13.968 -19.587)" fill="#fff"/>
        <path id="Tracé_853" d="M98.615,128.455l-.037.119-.049.115-.053.126-.053.127-.022.11-.046.1-.065.1-.1.12-.046.083-.085.1-.069.115-.117.08-.061.091-.1.08-.1.064-.1.08-.108.057-.239.113-.1.065-.106.025-.251.051-.125.006-.126-.014-.118-.018-.138-.017-.119-.038-.123-.045-.115-.049-.111-.061-.087-.074-.1-.077-.1-.1-.06-.078-.1-.108-.057-.109-.073-.1-.13-.21-.036-.11-.049-.113-.034-.122-.049-.113-.006-.146-.022-.118-.041-.117-.006-.106-.018-.13-.006-.106,0-.15.01-.114.021-.13,0-.109.064-.124.022-.11.034-.126.069-.115.022-.111.069-.095.085-.124.062-.091.085-.084.081-.072.121-.092.08-.072.1-.08.218-.113.109-.037.121-.034.11,0,.137-.021.11,0,.127.033.114.03.095.05.108.053.064.1.1.057.065.106.1.214.046.125.025.125.042.1-.01.134-.022.11-.025.123.006.106-.077.119-.037.119-.025.1-.062.111-.085.084-.088.116-.047.083-.116.1-.135.179-.1.084-.1.061-.12.092-.074.068-.093.069-.113.069-.09.057-.036.178.076.089.076.089.108.053.1.065.1.058.126.014.122.006.107-.006.136-.041.1-.021.229-.13.07-.057.117-.06.077-.08.086-.064.073-.108.089-.095.086-.085.046-.1.085-.1.045-.1.061-.111.053-.126.034-.088.183-.124.118.018.115.03.065.144Zm-2.8.171.108-.077.117-.08.1-.064.1-.111.074-.069.108-.116.085-.084.053-.107.077-.119.045-.1.041-.13-.014-.1.017-.157-.037-.109-.11-.211-.111-.061-.091-.061-.114.009-.141.014-.195.1-.113.089-.15.207-.037.1-.061.13-.038.1-.025.141-.017.119.01.134-.042.13.014.121.022.138.057.108.01.134.178.056Z" transform="translate(-14.53 -19.338)" fill="#fff"/>
        <path id="Tracé_854" d="M103.452,126.376l-.129.046-.131.026-.135.008-.09-.024-.124-.01-.154-.022-.091-.054-.123-.054-.113-.04-.12-.066-.113-.071-.065-.095-.1-.081-.1-.081-.062-.106-.13-.22-.082-.1-.068-.113-.03-.107-.053-.124-.075-.108-.03-.107-.031-.139-.055-.111-.012-.11-.031-.138,0-.114.013-.137-.031-.107v-.139l0-.119.01-.124.044-.137.025-.1.01-.124.076-.138.042-.093.074-.125.047-.086.069-.1.108-.107.063-.064.115-.111.2-.116.12-.072.114-.036.109-.011.09-.009h.139l.093.011.14.031.106.045.107.032.094.075.107.076.106.045.1.093v-.139l-.034-.126-.048-.116-.016-.117.012-.136-.036-.114-.039-.134.073-.189.094-.064.133-.07.06-.052.154.053.036.114.029.119.028.119.031.107.012.141.052.091.019.136.021.124.065.094.024.143.046.1.012.141.029.119.058.1.029.119.043.109.024.143.027.131.064.094.022.124.062.107.022.124.05.1.061.119.163.207.128.03.231-.128.055-.091.055-.091.041-.125.038-.1.025-.135v-.108l.03-.127.008-.144.014-.1-.021-.124,0-.132.023-.122,0-.127-.038-.1-.005-.146-.009-.122v-.139l.132-.134.149.015.112.146.036.114.016.117,0,.127,0,.119-.012.137,0,.114.014.129,0,.12.007.133,0,.128,0,.114-.015.117-.018.13-.027.115-.005.132-.018.129-.037.1-.041.124-.042.125-.023.091-.074.125-.072.082-.091.115-.2.135-.094.034-.119.028-.117.017-.13-.018-.1-.03-.128-.062-.074-.077-.1-.088-.022.153-.008.113-.018.13-.066.12-.023.123-.054.091-.079.119-.055.091-.083.112-.113.1-.3.177Zm.218-.983.063-.108.058-.1.049-.1.059-.147.032-.108,0-.119-.014-.1,0-.127.014-.149-.038-.1,0-.119-.061-.119-.047-.116-.034-.126-.052-.092-.075-.108-.038-.1-.147-.229-.093-.074-.1-.08-.089-.067-.125-.074-.1-.057-.11-.021-.148.018-.124.021-.1.051-.2.108-.075.094-.064.108-.076.106-.027.115-.058.242-.022.122-.008.113.009.121-.005.132.053.124.033.126.008.134.038.1.067.113.048.116.082.1.142.223.075.108.115.059.09.1.1.069.106.044.141.02h.139l.1.014.116-.048.235-.141Z" transform="translate(-15.514 -18.606)" fill="#fff"/>
        <path id="Tracé_855" d="M107.881,123.114l-.153.035-.12.006-.108-.036-.146-.04-.108-.049-.1-.091-.136-.195-.1-.091-.047-.1-.072-.088-.1-.1-.058-.1-.07-.113-.079-.083-.084-.091-.051-.118-.074-.076-.082-.114-.084-.09-.051-.118-.06-.087-.064-.107-.116-.086-.032-.11-.1-.079-.062-.131-.08-.07-.058-.1-.1-.1-.045-.11-.069-.113-.08-.07.011-.168.2-.167.063-.075.088-.072.186.019.069.113.073.076.05.13.086.077.065.094.089.109.07.1.046.111.071.089.059.1.077.1.086.09.081.114.054.081.049.13.065.094.076.108.093.071.064.108.063.119.087.065.069.113.064.107.084.089.183.168.177-.075,0-.093.047-.095.019-.117-.019-.121-.013-.113v-.25l-.036-.129,0-.113-.056-.124-.019-.121-.025-.127,0-.144-.033-.109,0-.145-.025-.127-.043-.124-.025-.114-.012-.126-.058-.113-.023-.14-.044-.124-.005-.131-.051-.118-.031-.122,0-.137-.056-.124-.027-.1-.042-.135-.01-.139.043-.183.115-.082.117-.107.17-.139.121.038.042.135.032.11.06.212.022.152.019.108.064.107.032.235.025.127.043.124.014.113.013.126.048.13.04.1.007.119.023.141.046.1.026.115v.124l.04.1.019.12.025.128.012.126.017.146.015.089.017.146.019.108.013.125,0,.138-.008.13-.016.1.012.126-.033.14-.017.1-.012.111-.075.13-.03.1-.071.08-.06.107-.229.163Z" transform="translate(-16.131 -18.112)" fill="#fff"/>
        <path id="Tracé_856" d="M112.015,119.755l-.12.076-.089.047-.12.064-.107.027-.125.033-.145.051-.124,0-.119,0-.118-.01-.13-.036-.118-.023-.11-.053-.123-.053-.109-.066-.1-.041-.109-.079-.1-.084-.091-.072-.167-.2-.072-.1-.078-.072-.07-.126-.079-.072-.064-.119-.046-.1-.064-.119-.014-.132-.052-.107-.028-.108-.039-.119-.027-.131-.014-.131-.008-.1-.027-.132.03-.135-.015-.106.023-.118.017-.136.028-.1.061-.141.041-.111.059-.116.053-.1.078-.1.059-.1.27-.264.077-.06.114-.07.094-.028.139-.058.088-.022.142,0,.1-.009.124.017.118.036.109.065.11.053.066.084.168.167.083.115.078.083.034.113.027.107.04.119,0,.118.015.119-.017.135-.036.118-.014.229-.058.1-.048.13-.035.117-.066.109-.041.1-.053.111-.1.114-.059.079-.1.127-.041.086-.084.078-.079.122-.09.084.014.143.1.091.1.053.117.036.136.03.1.022.125-.008.106-.028.126-.046.1-.071.114-.071.153-.144.085-.1.053-.086.071-.1.079-.109.04-.073.06-.141.047-.1.048-.129.028-.1.023-.13.041-.111-.008-.124.016-.124.023-.13.005-.137-.034-.1v-.155l-.021-.1-.015-.119-.032-.151-.021-.113-.008-.149.1-.127.131-.027.151.124.028.119.033.113.034.113.028.094.019.15.008.124,0,.119.027.131.015.107.008.136-.01.118.008.113.009.112-.005.137-.022.1-.046.247-.036.13-.022.1-.035.1-.067.147-.053.1-.041.1-.047.1-.084.091-.059.1-.091.109-.1.1-.186.161Zm-1.642-1.268.065-.1.085-.1.1-.1.053-.11.06-.1.085-.128.035-.1.036-.142.041-.11,0-.106,0-.143-.021-.125-.033-.113-.058-.113-.168-.168-.091-.058-.112-.016-.124.02-.1.058-.185.162-.085.115-.035.1-.067.135,0,.1-.018.149-.023.13.035.1,0,.13.026.144.032.125.059.1.052.108.07.127.033.113.18.025Z" transform="translate(-16.73 -17.769)" fill="#fff"/>
        <path id="Tracé_857" d="M116.256,114.061l.024.13.017.124,0,.131.005.124,0,.118-.052.251-.019.125-.034.1-.032.137-.028.082-.052.12-.045.1-.088.135-.052.108-.071.077-.077.108-.174.174-.071.078-.11.054-.114.1-.1.047-.109.079-.123.03-.117.024-.112.016-.123.042-.13-.014-.112,0-.131-.014-.113-.033-.108-.064-.131,0-.1-.076-.108-.052-.108-.064-.108-.063-.1-.071-.163-.186-.091-.071-.091-.1-.066-.11-.066-.109-.078-.071-.073-.115-.023-.118-.072-.09-.049-.13-.052-.1-.036-.116-.018-.136-.029-.111-.011-.13-.011-.118-.035-.1.025-.131-.01-.1.032-.151.032-.113.015-.093.039-.133.039-.107.052-.1.058-.114.058-.1.071-.1.191-.181.072-.077.127-.074.085-.053.129-.061.093-.009.259-.047.108.039H114l.1.077.119.039.108.064.181.167.052.1-.012.18-.095.091-.077.108-.09.1-.142.025-.167-.155-.12-.04-.113-.032-.1,0-.123.03-.1.06-.166.192-.059.09-.04.095-.044.139-.027.107.011.118-.014.119.005.124.047.116.017.111.036.1.042.135.059.091.066.1.073.115.066.1.066.109.079.1.2.136.091.1.107.052.1.046.132.038.107.028.113.02.119.014.111-.029.13-.036.086-.041.115-.073.1-.06.149-.173.089-.109.07-.1.064-.108.035-.075.082-.116.033-.113.04-.107.008-.125.026-.119.014-.106.045-.139-.011-.1,0-.136.1-.146.124-.03.112,0,.152.093Z" transform="translate(-17.232 -17.26)" fill="#fff"/>
        <path id="Tracé_858" d="M1.361,39.568,0,37.8.87,36,2.1,38.032Zm7.8,4.158,1.784-3.685,1.512.733L9.836,46.191,1.055,41.939l2.594-5.357,1.513.732L3.407,40.94l2.023.98L6.9,38.888l1.513.732L6.943,42.652Z" transform="translate(0 -5.52)" fill="#0a1d4f"/>
        <path id="Tracé_859" d="M15.544,36.014,8.982,31.4,7.432,33.6l-1.418-1,4.228-6.011,1.418,1-1.551,2.2,6.562,4.615Z" transform="translate(-0.922 -4.078)" fill="#0a1d4f"/>
        <rect id="Rectangle_956" width="1.958" height="9.756" transform="translate(11.355 20.256) rotate(-47.571)" fill="#0a1d4f"/>
        <path id="Tracé_860" d="M24.731,23.275l3.115-2.655L28.937,21.9l-4.58,3.9-6.329-7.424,4.529-3.862L23.647,15.8l-3.065,2.612,1.459,1.711L24.6,17.935,25.7,19.213,23.132,21.4Z" transform="translate(-2.764 -2.226)" fill="#0a1d4f"/>
        <path id="Tracé_861" d="M31.756,8.41l1.581-.926L38.271,15.9l-1.7.993L30.2,13.119l3.276,5.591-1.581.926L26.962,11.22l1.694-.994L35.033,14Z" transform="translate(-4.134 -1.148)" fill="#0a1d4f"/>
        <path id="Tracé_862" d="M44.28,3.11l1.73-.6,3.216,9.21-1.855.648L41.844,7.43l2.136,6.118-1.73.6L39.034,4.941l1.855-.648,5.528,4.934Z" transform="translate(-5.985 -0.384)" fill="#0a1d4f"/>
        <path id="Tracé_863" d="M55.173,8.91l4.043-.645.264,1.659-5.943.949L52,1.239,57.877.3l.265,1.659L54.164,2.6l.355,2.22,3.327-.531.265,1.659-3.327.532Z" transform="translate(-7.973 -0.046)" fill="#0a1d4f"/>
        <path id="Tracé_864" d="M67.895,9.627,68.766.094A12.433,12.433,0,0,1,71.359.047a4.663,4.663,0,0,1,3.4,1.536,5.307,5.307,0,0,1,.815,3.867,6.357,6.357,0,0,1-.807,2.78,3.464,3.464,0,0,1-1.8,1.468,6.5,6.5,0,0,1-2.827.268,20.476,20.476,0,0,1-2.253-.338m4.3-1.444a1.988,1.988,0,0,0,.914-.975,5.687,5.687,0,0,0,.458-1.941,5.689,5.689,0,0,0-.1-1.991,2.008,2.008,0,0,0-.721-1.135,2.61,2.61,0,0,0-1.323-.445,4.507,4.507,0,0,0-.841,0l-.6,6.584c.292.045.565.078.819.1A2.665,2.665,0,0,0,72.2,8.182" transform="translate(-10.41 0)" fill="#0a1d4f"/>
        <path id="Tracé_865" d="M80.529,11.1a2.548,2.548,0,0,1-.8-1.538,5.4,5.4,0,0,1,.235-2.25l1.646-5.762,1.875.536L81.781,8.065a2.352,2.352,0,0,0-.031,1.6,1.887,1.887,0,0,0,2.405.687,2.363,2.363,0,0,0,.814-1.372L86.676,3l1.837.525L86.868,9.285a5.481,5.481,0,0,1-.983,2.036,2.527,2.527,0,0,1-1.471.89,4.4,4.4,0,0,1-2.044-.166,4.515,4.515,0,0,1-1.842-.944" transform="translate(-12.219 -0.238)" fill="#0a1d4f"/>
        <path id="Tracé_866" d="M100.389,9.035l2.117,1.131-4.6,8.6-1.6-.858,3.29-6.156-4.526,3.9-1.378-.737.649-5.79-3.216,6.017-1.6-.857,4.6-8.6,2.116,1.131-.8,6.575Z" transform="translate(-13.726 -0.871)" fill="#0a1d4f"/>
        <path id="Tracé_867" d="M104.174,21.427l3.162,2.6-1.067,1.3-4.651-3.82,6.193-7.538,4.6,3.778-1.067,1.3-3.113-2.556-1.427,1.737,2.6,2.139-1.067,1.3-2.6-2.139Zm5.872-6.607,2.042-.907,1.543,1.267-2.267.724Z" transform="translate(-15.581 -2.133)" fill="#0a1d4f"/>
        <path id="Tracé_868" d="M119.856,25.739l1.191,1.393-7.414,6.341-1.277-1.493,2.59-6.942-4.925,4.211-1.191-1.393,7.415-6.341,1.277,1.493-2.59,6.942Z" transform="translate(-16.687 -3.299)" fill="#0a1d4f"/>
        <rect id="Rectangle_957" width="9.756" height="1.958" transform="translate(98.24 32.242) rotate(-32.471)" fill="#0a1d4f"/>
        <path id="Tracé_869" d="M118.8,41.792l8.8-4.215.846,1.765-7.236,3.466,1.658,3.459-1.564.749Z" transform="translate(-18.216 -5.762)" fill="#0a1d4f"/>
        <path id="Tracé_870" d="M71.138,100.263c-1.931-.392-3.152-1.476-3.4-3.034-.027-.21-.046-2.47-.054-7.207l-.009-4.173h-5.54l-.008,4.173c-.009,4.7-.028,7-.064,7.207a3.471,3.471,0,0,1-.92,1.83,5.451,5.451,0,0,1-3.644,1.358c-.373.018-.838.027-1.047.009l-.383-.028.018.465.009.456.656-.009c5.74-.091,8.063-.1,12.272-.045,2.441.036,4.492.054,4.564.054h.127l.009-.456.019-.465-.383.028a10.392,10.392,0,0,1-2.223-.164" transform="translate(-8.597 -13.163)" fill="#e1946b"/>
        <path id="Tracé_871" d="M86.606,51.768l-.01-.51h-.74a10.115,10.115,0,0,0-2.69.37,8.532,8.532,0,0,0-3.741,2.115,8.2,8.2,0,0,0-1.984,3.281,11.436,11.436,0,0,0-.376,1.476,3.241,3.241,0,0,1-2.771,2.925,3.966,3.966,0,0,1-.52.065,2.008,2.008,0,0,0-.32.025l-.135.03.014.51.01.511h.74a10.219,10.219,0,0,0,2.7-.375c-.05.58-.125,1.07-.24,1.72a14.448,14.448,0,0,1-2.05,5.342,9.147,9.147,0,0,1-6.717,4.111h-2.95c-.008-.523-.011-1.688-.011-3.066,0-1.3,0-3.04.005-5.291.019-7.591.03-8.381.095-8.771.345-2.116,1.71-3.245,4.15-3.436a9.372,9.372,0,0,1,1.851.055c.075.005.085-.019.09-.5l.02-.49H63.606V48.413a5.514,5.514,0,1,0-3.1,0v3.455H53.105l0,.49c.01.476.02.5.1.5a9.112,9.112,0,0,1,1.84-.055c1.915.16,3.121.845,3.756,2.13a4.536,4.536,0,0,1,.43,1.44c.035.235.055,2.706.06,8.672.01,2.361.019,4.046.019,5.256,0,1.552-.008,2.621-.02,3.066h-2.94a9.147,9.147,0,0,1-6.717-4.111,14.477,14.477,0,0,1-2.05-5.342c-.115-.649-.191-1.14-.24-1.72a10.22,10.22,0,0,0,2.7.375h.74l.01-.511.015-.51-.135-.03a2,2,0,0,0-.32-.025,3.965,3.965,0,0,1-.52-.065,3.239,3.239,0,0,1-2.77-2.925,11.715,11.715,0,0,0-.375-1.476A8.221,8.221,0,0,0,44.7,53.743a8.53,8.53,0,0,0-3.74-2.115,10.127,10.127,0,0,0-2.692-.37h-.74l-.01.51-.02.511.141.025a1.493,1.493,0,0,0,.32.03,3.039,3.039,0,0,1,.515.065,3.226,3.226,0,0,1,2.77,2.92,32.074,32.074,0,0,1,.065,3.391c0,1.675.025,3.2.046,3.49a13.784,13.784,0,0,0,2.895,7.641c2.455,3.061,6.636,5.077,11.772,5.676.605.075,1.615.151,2.57.2l.23.005H65.3l.23-.005c.955-.045,1.965-.12,2.57-.2,5.136-.6,9.317-2.615,11.772-5.676a13.792,13.792,0,0,0,2.9-7.641c.02-.29.045-1.815.045-3.49a32.375,32.375,0,0,1,.065-3.391,3.228,3.228,0,0,1,2.77-2.92,3.039,3.039,0,0,1,.515-.065,1.483,1.483,0,0,0,.32-.03l.141-.025ZM59.661,43.122a2.393,2.393,0,1,1,2.4,2.4,2.39,2.39,0,0,1-2.4-2.4" transform="translate(-5.75 -5.767)" fill="#0a1d4f"/>
      </g>
    </g>
  </g>
</svg>
