<?xml version="1.0" encoding="UTF-8"?>
<svg xmlns="http://www.w3.org/2000/svg" fill="white" version="1.1" id="Capa_1" x="0px" y="0px" viewBox="0 0 512 512" style="enable-background:new 0 0 512 512;" xml:space="preserve" width="512" height="512">
<g>
	<path style="fill:none;stroke:white;stroke-width:15;stroke-linecap:round;stroke-linejoin:round;stroke-miterlimit:10;" d="&#10;&#9;&#9;M120.333,310c0,8.284-6.716,14.5-15,14.5s-15-6.216-15-14.5V187.5c0-16.5,13.5-30,30-30H226c16.5,0,30,13.5,30,30V310&#10;&#9;&#9;c0,8.284-6.716,14.5-15,14.5c-8.284,0-15-6.216-15-14.5"/>

		<line style="fill:none;stroke:white;stroke-width:15;stroke-linecap:round;stroke-linejoin:round;stroke-miterlimit:10;" x1="120.333" y1="202.5" x2="120.333" y2="187.5"/>
	<path style="fill:none;stroke:white;stroke-width:15;stroke-linecap:round;stroke-linejoin:round;stroke-miterlimit:10;" d="&#10;&#9;&#9;M225.999,187.5v268.083c0,10.447-8.469,18.917-18.917,18.917s-18.916-8.469-18.916-18.917V310h-30v145.584&#10;&#9;&#9;c0,10.447-8.469,18.917-18.917,18.917s-18.917-8.469-18.917-18.917V232.5"/>
	<path style="fill:none;stroke:white;stroke-width:15;stroke-linecap:round;stroke-linejoin:round;stroke-miterlimit:10;" d="&#10;&#9;&#9;M256,187.5c0-16.5,13.5-30,30-30h105.667c16.5,0,30,13.5,30,30V310c0,8.284-6.716,14.5-15,14.5c-8.284,0-15-6.216-15-14.5"/>
	<path style="fill:none;stroke:white;stroke-width:15;stroke-linecap:round;stroke-linejoin:round;stroke-miterlimit:10;" d="&#10;&#9;&#9;M286,310c0,8.284-6.716,14.5-15,14.5s-15-6.216-15-14.5"/>

		<line style="fill:none;stroke:white;stroke-width:15;stroke-linecap:round;stroke-linejoin:round;stroke-miterlimit:10;" x1="286" y1="202.5" x2="286" y2="187.5"/>
	<path style="fill:none;stroke:white;stroke-width:15;stroke-linecap:round;stroke-linejoin:round;stroke-miterlimit:10;" d="&#10;&#9;&#9;M391.666,187.5v268.083c0,10.447-8.469,18.917-18.917,18.917c-10.447,0-18.916-8.469-18.916-18.917V310h-30v145.584&#10;&#9;&#9;c0,10.447-8.469,18.917-18.917,18.917c-10.447,0-18.917-8.469-18.917-18.917V232.5"/>

		<circle style="fill:none;stroke:white;stroke-width:15;stroke-linecap:round;stroke-linejoin:round;stroke-miterlimit:10;" cx="195.667" cy="82.5" r="45"/>

		<circle style="fill:none;stroke:white;stroke-width:15;stroke-linecap:round;stroke-linejoin:round;stroke-miterlimit:10;" cx="316.333" cy="82.5" r="45"/>

		<line style="fill:none;stroke:white;stroke-width:15;stroke-linecap:round;stroke-linejoin:round;stroke-miterlimit:10;" x1="60.333" y1="248.75" x2="7.5" y2="248.75"/>

		<line style="fill:none;stroke:white;stroke-width:15;stroke-linecap:round;stroke-linejoin:round;stroke-miterlimit:10;" x1="60.333" y1="263.75" x2="60.333" y2="233.75"/>

		<line style="fill:none;stroke:white;stroke-width:15;stroke-linecap:round;stroke-linejoin:round;stroke-miterlimit:10;" x1="7.5" y1="263.75" x2="7.5" y2="233.75"/>

		<line style="fill:none;stroke:white;stroke-width:15;stroke-linecap:round;stroke-linejoin:round;stroke-miterlimit:10;" x1="504.5" y1="248.75" x2="451.667" y2="248.75"/>

		<line style="fill:none;stroke:white;stroke-width:15;stroke-linecap:round;stroke-linejoin:round;stroke-miterlimit:10;" x1="504.5" y1="263.75" x2="504.5" y2="233.75"/>

		<line style="fill:none;stroke:white;stroke-width:15;stroke-linecap:round;stroke-linejoin:round;stroke-miterlimit:10;" x1="451.667" y1="263.75" x2="451.667" y2="233.75"/>
</g>















</svg>
