<svg clip-rule="evenodd" fill-rule="evenodd" height="512" fill="white" image-rendering="optimizeQuality" shape-rendering="geometricPrecision" text-rendering="geometricPrecision" viewBox="0 0 1707 1707" width="512" xmlns="http://www.w3.org/2000/svg"><g id="Layer_x0020_1"><path d="m1076 794c-59 0-107-47-107-104v-50h-46c-59 0-107-46-107-103 0-59 47-106 107-106h46v-50c0-57 48-104 107-104 57 0 103 47 103 104v50h50c58 0 107 49 107 106 0 56-49 103-107 103h-50v50c0 57-46 104-103 104zm-122 872c-22 0-44-4-66-11l-338-99c1 12-4 24-15 30l-193 110c-15 7-33 3-41-11l-297-510c-8-14-3-33 11-41l193-113c32-19 48 23 60 42l27-15c73-44 160-55 246-33 93 25 211 74 326 122 55 23 107 44 153 62 36 12 65 42 78 79l396-214c94-54 200 5 212 106 6 58-21 109-72 137l-570 330c-37 19-74 29-110 29zm-445-185 396 117c44 13 85 9 130-15l570-329c88-49 24-192-82-137l-421 227c-14 53-39 116-109 91l-343-113c-37-13-18-70 19-57 32 11 349 118 354 115 10-6 22-52 23-60 2-22-23-60-47-65-47-18-100-40-155-63-113-47-229-95-319-119-69-18-140-9-199 26l-28 16zm-438-310 267 458 141-81-266-460zm1005-108c-8 0-15-2-21-8l-497-496c-209-207-51-552 228-552 87 0 167 34 228 96l62 60 62-60c212-210 549-51 549 228 0 86-33 167-93 228l-497 496c-6 6-13 8-21 8zm-290-996c-220 0-360 274-185 449l475 475 475-475c167-167 42-449-185-449-198 0-254 212-311 159-86-82-142-159-269-159zm137 424c-60 0-63 90 0 90 120 0 106-14 106 109 0 57 90 58 90 0 0-124-14-109 110-109 25 0 47-21 47-44 0-28-24-46-47-46-124 0-110 14-110-110 0-58-90-57-90 0 0 123 14 110-106 110z"/></g></svg>